<svg xmlns="http://www.w3.org/2000/svg" version="1.1" width="680" height="1024">
<rect x="0" y="0" width="680" height="1024" fill="#61503b" />
<g transform="scale(4.000000) translate(0.5 0.5)">
<polygon fill="#c7bdab" fill-opacity="0.501961" points="185,173 182,49 -5,170" />
<polygon fill="#ffedc6" fill-opacity="0.501961" points="-16,76 103,42 52,93" />
<polygon fill="#080501" fill-opacity="0.501961" points="-16,249 140,159 185,271" />
<polygon fill="#000000" fill-opacity="0.501961" points="93,-16 185,4 141,62" />
<polygon fill="#000000" fill-opacity="0.501961" points="-16,5 51,78 84,-16" />
<polygon fill="#c6d0ce" fill-opacity="0.501961" points="92,93 139,174 66,170" />
<polygon fill="#ffbb65" fill-opacity="0.501961" points="116,13 90,66 67,16" />
<polygon fill="#512606" fill-opacity="0.501961" points="43,52 185,98 159,128" />
<polygon fill="#ffd9b3" fill-opacity="0.501961" points="77,61 6,92 -16,63" />
<polygon fill="#000000" fill-opacity="0.501961" points="19,222 50,180 101,207" />
<polygon fill="#000000" fill-opacity="0.501961" points="110,232 185,191 162,271" />
<polygon fill="#ffa448" fill-opacity="0.501961" points="25,190 -11,185 4,143" />
<polygon fill="#000000" fill-opacity="0.501961" points="106,-10 125,56 185,0" />
<polygon fill="#ffab56" fill-opacity="0.501961" points="143,114 164,68 139,62" />
<polygon fill="#000000" fill-opacity="0.501961" points="155,120 174,119 154,77" />
<polygon fill="#000a00" fill-opacity="0.501961" points="11,59 87,-16 -16,2" />
<polygon fill="#1f434e" fill-opacity="0.501961" points="106,161 185,159 130,178" />
<polygon fill="#f2891e" fill-opacity="0.501961" points="90,271 86,218 73,232" />
<polygon fill="#1d1612" fill-opacity="0.501961" points="65,112 22,93 123,81" />
<polygon fill="#dca897" fill-opacity="0.501961" points="62,122 52,94 36,124" />
<polygon fill="#fcfffd" fill-opacity="0.501961" points="21,127 -4,125 3,134" />
<polygon fill="#260d00" fill-opacity="0.501961" points="43,163 80,172 47,184" />
<polygon fill="#270100" fill-opacity="0.501961" points="38,136 41,114 -16,112" />
<polygon fill="#7b9ba4" fill-opacity="0.501961" points="185,126 136,175 111,120" />
<polygon fill="#69340b" fill-opacity="0.501961" points="63,36 185,42 154,72" />
<polygon fill="#785a3e" fill-opacity="0.501961" points="8,164 82,133 88,92" />
<polygon fill="#ffb16a" fill-opacity="0.501961" points="102,4 115,34 73,23" />
<polygon fill="#edf8f7" fill-opacity="0.501961" points="116,122 116,162 97,145" />
<polygon fill="#eaaf7c" fill-opacity="0.501961" points="25,114 27,98 -4,97" />
<polygon fill="#61584d" fill-opacity="0.501961" points="107,183 109,215 177,212" />
<polygon fill="#ffffff" fill-opacity="0.501961" points="130,84 133,75 123,80" />
<polygon fill="#3c3e0e" fill-opacity="0.501961" points="75,3 7,52 70,64" />
<polygon fill="#e6730a" fill-opacity="0.501961" points="115,241 107,218 106,271" />
<polygon fill="#ffc47a" fill-opacity="0.501961" points="166,105 159,73 179,58" />
<polygon fill="#dd6d00" fill-opacity="0.501961" points="103,173 52,179 87,185" />
<polygon fill="#091521" fill-opacity="0.501961" points="79,96 119,65 77,66" />
<polygon fill="#322514" fill-opacity="0.501961" points="50,104 28,123 55,54" />
<polygon fill="#ddc5ab" fill-opacity="0.501961" points="10,90 74,86 -16,57" />
<polygon fill="#f1cba2" fill-opacity="0.501961" points="122,64 76,46 72,61" />
<polygon fill="#b9d2de" fill-opacity="0.501961" points="155,124 185,117 166,156" />
<polygon fill="#a67545" fill-opacity="0.501961" points="48,217 51,271 38,237" />
<polygon fill="#001f34" fill-opacity="0.501961" points="91,138 100,136 93,123" />
<polygon fill="#ffa34b" fill-opacity="0.501961" points="30,164 33,191 17,152" />
<polygon fill="#000000" fill-opacity="0.501961" points="160,271 185,219 167,174" />
<polygon fill="#481300" fill-opacity="0.501961" points="139,139 150,138 155,114" />
<polygon fill="#ef9d56" fill-opacity="0.501961" points="42,198 34,155 45,178" />
<polygon fill="#0c0000" fill-opacity="0.501961" points="7,138 19,131 14,165" />
<polygon fill="#245b6b" fill-opacity="0.501961" points="138,146 126,152 125,105" />
<polygon fill="#d5dbcf" fill-opacity="0.501961" points="102,103 77,101 89,116" />
<polygon fill="#040704" fill-opacity="0.501961" points="21,271 24,189 39,213" />
<polygon fill="#fff0d6" fill-opacity="0.501961" points="54,79 65,65 69,83" />
<polygon fill="#120000" fill-opacity="0.501961" points="173,-16 103,12 173,52" />
<polygon fill="#000209" fill-opacity="0.501961" points="105,271 148,198 180,271" />
<polygon fill="#ecbf98" fill-opacity="0.501961" points="50,165 106,172 101,147" />
<polygon fill="#8e7a68" fill-opacity="0.501961" points="167,214 152,212 156,166" />
<polygon fill="#190600" fill-opacity="0.501961" points="73,108 61,134 60,92" />
<polygon fill="#4f4a40" fill-opacity="0.501961" points="68,236 98,213 3,218" />
<polygon fill="#623a15" fill-opacity="0.501961" points="29,95 28,71 14,112" />
<polygon fill="#fcc48f" fill-opacity="0.501961" points="148,68 148,117 141,93" />
<polygon fill="#a78266" fill-opacity="0.501961" points="143,213 131,213 134,183" />
<polygon fill="#b6865d" fill-opacity="0.501961" points="114,219 125,216 118,189" />
<polygon fill="#fbe1c9" fill-opacity="0.501961" points="138,172 123,173 146,164" />
<polygon fill="#163139" fill-opacity="0.501961" points="121,160 148,170 185,160" />
<polygon fill="#9d5c1b" fill-opacity="0.501961" points="184,60 135,71 86,54" />
<polygon fill="#001825" fill-opacity="0.501961" points="132,179 129,232 118,180" />
<polygon fill="#6a593b" fill-opacity="0.501961" points="37,46 52,58 52,97" />
<polygon fill="#060000" fill-opacity="0.501961" points="93,5 60,-16 -16,6" />
<polygon fill="#372c23" fill-opacity="0.501961" points="70,59 124,96 71,92" />
<polygon fill="#5a370f" fill-opacity="0.501961" points="16,140 21,115 36,174" />
<polygon fill="#b98b69" fill-opacity="0.501961" points="117,117 159,124 114,94" />
<polygon fill="#130000" fill-opacity="0.501961" points="-7,90 -5,99 26,92" />
<polygon fill="#c36610" fill-opacity="0.501961" points="92,246 95,216 100,245" />
<polygon fill="#2f1408" fill-opacity="0.501961" points="141,108 131,126 125,124" />
<polygon fill="#080000" fill-opacity="0.501961" points="153,113 155,82 165,92" />
<polygon fill="#8b3800" fill-opacity="0.501961" points="95,15 76,7 113,-11" />
<polygon fill="#0d161a" fill-opacity="0.501961" points="42,153 61,198 52,240" />
<polygon fill="#83a0b3" fill-opacity="0.501961" points="92,85 92,92 80,87" />
<polygon fill="#314242" fill-opacity="0.501961" points="108,177 54,192 104,201" />
<polygon fill="#f7c1b2" fill-opacity="0.501961" points="38,109 46,122 50,111" />
<polygon fill="#000717" fill-opacity="0.501961" points="109,212 100,247 99,178" />
<polygon fill="#192209" fill-opacity="0.501961" points="75,52 40,8 -16,45" />
<polygon fill="#78532c" fill-opacity="0.501961" points="25,207 21,258 -16,160" />
<polygon fill="#b8ad9d" fill-opacity="0.501961" points="128,161 138,141 184,157" />
<polygon fill="#0d0805" fill-opacity="0.501961" points="112,179 111,202 131,163" />
<polygon fill="#daba97" fill-opacity="0.501961" points="67,122 74,113 87,124" />
<polygon fill="#855319" fill-opacity="0.501961" points="54,61 -16,44 -6,63" />
<polygon fill="#e2e6de" fill-opacity="0.501961" points="137,128 112,126 118,132" />
<polygon fill="#0b0000" fill-opacity="0.501961" points="45,216 35,221 34,180" />
<polygon fill="#f0d6b9" fill-opacity="0.501961" points="4,66 4,90 33,90" />
<polygon fill="#5c3f23" fill-opacity="0.501961" points="148,27 169,27 150,69" />
<polygon fill="#bf9969" fill-opacity="0.501961" points="5,16 7,5 3,7" />
<polygon fill="#1a0500" fill-opacity="0.501961" points="-16,254 48,271 32,245" />
<polygon fill="#a58768" fill-opacity="0.501961" points="113,187 107,208 107,177" />
<polygon fill="#9c7b5e" fill-opacity="0.501961" points="82,41 121,51 121,68" />
<polygon fill="#b65e0c" fill-opacity="0.501961" points="88,222 74,246 83,271" />
<polygon fill="#1c4851" fill-opacity="0.501961" points="128,159 143,167 107,166" />
<polygon fill="#bca48a" fill-opacity="0.501961" points="81,155 54,150 47,128" />
<polygon fill="#645223" fill-opacity="0.501961" points="58,49 80,11 55,13" />
<polygon fill="#ce803a" fill-opacity="0.501961" points="65,33 118,15 109,38" />
<polygon fill="#080706" fill-opacity="0.501961" points="101,103 117,90 95,91" />
</g>
</svg>