<svg xmlns="http://www.w3.org/2000/svg" version="1.1" width="1024" height="684">
<rect x="0" y="0" width="1024" height="684" fill="#76614d" />
<g transform="scale(4.000000) translate(0.5 0.5)">
<polygon fill="#e0c9ae" fill-opacity="0.501961" points="125,34 271,183 -16,165" />
<polygon fill="#000000" fill-opacity="0.501961" points="-1,105 -1,-16 200,2" />
<polygon fill="#160900" fill-opacity="0.501961" points="271,125 127,112 263,-12" />
<polygon fill="#000000" fill-opacity="0.501961" points="186,-16 180,71 90,-2" />
<polygon fill="#d9c3a8" fill-opacity="0.501961" points="99,24 34,186 166,59" />
<polygon fill="#68411d" fill-opacity="0.501961" points="178,145 129,83 98,146" />
<polygon fill="#dfc7b3" fill-opacity="0.501961" points="34,169 243,125 247,186" />
<polygon fill="#000000" fill-opacity="0.501961" points="94,46 -16,15 -7,103" />
<polygon fill="#f3cfab" fill-opacity="0.501961" points="183,19 217,39 231,-16" />
<polygon fill="#9f3c11" fill-opacity="0.501961" points="117,17 23,-16 88,52" />
<polygon fill="#040000" fill-opacity="0.501961" points="182,117 181,86 124,106" />
<polygon fill="#250a00" fill-opacity="0.501961" points="212,38 128,7 169,70" />
<polygon fill="#e5dbc1" fill-opacity="0.501961" points="170,76 154,98 142,40" />
<polygon fill="#ede3cc" fill-opacity="0.501961" points="73,129 91,77 129,115" />
<polygon fill="#6b5e4c" fill-opacity="0.501961" points="83,56 -16,131 65,129" />
<polygon fill="#dbc6b1" fill-opacity="0.501961" points="100,186 -16,136 184,158" />
<polygon fill="#110900" fill-opacity="0.501961" points="24,92 72,87 36,-16" />
<polygon fill="#090400" fill-opacity="0.501961" points="131,-16 109,36 173,39" />
<polygon fill="#7c6952" fill-opacity="0.501961" points="67,138 181,152 164,122" />
<polygon fill="#c09673" fill-opacity="0.501961" points="68,81 112,12 108,72" />
<polygon fill="#902d00" fill-opacity="0.501961" points="146,115 99,127 171,129" />
<polygon fill="#110b00" fill-opacity="0.501961" points="237,-16 271,18 227,17" />
<polygon fill="#664623" fill-opacity="0.501961" points="178,112 181,19 249,127" />
<polygon fill="#b79e87" fill-opacity="0.501961" points="271,146 267,185 127,129" />
<polygon fill="#b28b71" fill-opacity="0.501961" points="39,19 19,25 2,15" />
<polygon fill="#bd9e7f" fill-opacity="0.501961" points="185,32 191,-16 230,5" />
<polygon fill="#71513d" fill-opacity="0.501961" points="-16,151 27,151 8,177" />
<polygon fill="#e1c5a1" fill-opacity="0.501961" points="222,150 144,115 182,116" />
<polygon fill="#000000" fill-opacity="0.501961" points="-16,55 85,50 41,18" />
<polygon fill="#d46e40" fill-opacity="0.501961" points="113,21 107,39 84,-7" />
<polygon fill="#b39e83" fill-opacity="0.501961" points="5,113 80,99 65,123" />
<polygon fill="#1d0000" fill-opacity="0.501961" points="15,21 95,-16 17,-16" />
<polygon fill="#493b2b" fill-opacity="0.501961" points="135,150 102,138 173,142" />
<polygon fill="#b09680" fill-opacity="0.501961" points="33,159 -16,132 134,130" />
<polygon fill="#d2bea8" fill-opacity="0.501961" points="199,127 146,164 262,126" />
<polygon fill="#090000" fill-opacity="0.501961" points="157,113 174,116 177,63" />
<polygon fill="#fffcea" fill-opacity="0.501961" points="65,122 101,114 102,129" />
<polygon fill="#a8977d" fill-opacity="0.501961" points="66,79 159,49 126,36" />
<polygon fill="#4a3f31" fill-opacity="0.501961" points="73,85 -5,110 26,68" />
<polygon fill="#9c744f" fill-opacity="0.501961" points="19,-10 10,16 -16,5" />
<polygon fill="#88755e" fill-opacity="0.501961" points="120,139 67,126 52,142" />
<polygon fill="#b14f26" fill-opacity="0.501961" points="196,47 180,64 181,92" />
<polygon fill="#5c280f" fill-opacity="0.501961" points="91,-16 99,37 23,14" />
<polygon fill="#59554b" fill-opacity="0.501961" points="122,115 123,84 148,115" />
<polygon fill="#1c0d00" fill-opacity="0.501961" points="271,138 243,131 246,142" />
<polygon fill="#302116" fill-opacity="0.501961" points="190,-13 152,41 178,90" />
<polygon fill="#d7c3ad" fill-opacity="0.501961" points="12,163 106,143 109,171" />
<polygon fill="#7e705a" fill-opacity="0.501961" points="145,93 165,87 162,101" />
<polygon fill="#4d402e" fill-opacity="0.501961" points="42,121 69,128 15,129" />
<polygon fill="#c0b19a" fill-opacity="0.501961" points="125,110 120,61 74,74" />
<polygon fill="#ff9929" fill-opacity="0.501961" points="145,115 128,117 159,124" />
<polygon fill="#b59e7f" fill-opacity="0.501961" points="130,141 96,129 168,131" />
<polygon fill="#782d00" fill-opacity="0.501961" points="128,130 102,121 143,120" />
<polygon fill="#150e08" fill-opacity="0.501961" points="189,-16 160,52 101,8" />
<polygon fill="#50442a" fill-opacity="0.501961" points="174,101 227,127 228,18" />
<polygon fill="#aa8c77" fill-opacity="0.501961" points="271,160 241,137 197,186" />
<polygon fill="#3c3317" fill-opacity="0.501961" points="241,-16 226,125 271,125" />
<polygon fill="#cabba4" fill-opacity="0.501961" points="131,39 158,52 148,86" />
<polygon fill="#804324" fill-opacity="0.501961" points="49,25 53,7 94,49" />
<polygon fill="#140c07" fill-opacity="0.501961" points="155,31 143,-16 107,37" />
<polygon fill="#5f5040" fill-opacity="0.501961" points="28,112 73,67 74,89" />
<polygon fill="#5e290b" fill-opacity="0.501961" points="177,25 193,63 213,38" />
<polygon fill="#a8957d" fill-opacity="0.501961" points="129,37 143,97 83,56" />
<polygon fill="#0b0700" fill-opacity="0.501961" points="91,48 -16,18 27,77" />
<polygon fill="#a58c6d" fill-opacity="0.501961" points="215,121 184,117 169,148" />
<polygon fill="#9f836e" fill-opacity="0.501961" points="5,22 26,25 35,17" />
<polygon fill="#b5a78b" fill-opacity="0.501961" points="75,69 89,49 74,93" />
<polygon fill="#d0baa4" fill-opacity="0.501961" points="83,186 21,147 150,148" />
<polygon fill="#453b28" fill-opacity="0.501961" points="167,145 177,141 154,140" />
<polygon fill="#887560" fill-opacity="0.501961" points="3,120 63,126 13,99" />
<polygon fill="#1d1409" fill-opacity="0.501961" points="182,100 181,116 138,111" />
<polygon fill="#dabfaa" fill-opacity="0.501961" points="53,137 38,130 73,131" />
<polygon fill="#bb9b80" fill-opacity="0.501961" points="184,25 215,36 208,-16" />
<polygon fill="#190500" fill-opacity="0.501961" points="10,18 25,-16 38,13" />
<polygon fill="#dbccbc" fill-opacity="0.501961" points="178,137 206,147 236,136" />
<polygon fill="#683a11" fill-opacity="0.501961" points="160,120 171,129 136,129" />
<polygon fill="#795b45" fill-opacity="0.501961" points="39,169 8,186 -5,163" />
<polygon fill="#a59378" fill-opacity="0.501961" points="122,116 123,84 109,114" />
<polygon fill="#360f00" fill-opacity="0.501961" points="96,31 80,3 78,22" />
<polygon fill="#b0937e" fill-opacity="0.501961" points="65,134 -6,132 -5,151" />
<polygon fill="#ece0c9" fill-opacity="0.501961" points="121,116 94,112 70,125" />
<polygon fill="#d6c4ab" fill-opacity="0.501961" points="78,103 99,71 126,107" />
<polygon fill="#b5a48c" fill-opacity="0.501961" points="83,114 51,122 67,98" />
<polygon fill="#a65113" fill-opacity="0.501961" points="109,128 101,122 134,116" />
<polygon fill="#0d0300" fill-opacity="0.501961" points="87,49 75,63 42,22" />
<polygon fill="#877052" fill-opacity="0.501961" points="188,2 183,29 211,-16" />
<polygon fill="#34261a" fill-opacity="0.501961" points="157,43 189,-3 172,82" />
<polygon fill="#e36b01" fill-opacity="0.501961" points="162,122 147,117 144,123" />
<polygon fill="#c8b9a2" fill-opacity="0.501961" points="93,79 170,82 162,62" />
<polygon fill="#030300" fill-opacity="0.501961" points="14,25 49,24 45,69" />
<polygon fill="#803a1b" fill-opacity="0.501961" points="88,-16 102,35 68,-12" />
<polygon fill="#0e0200" fill-opacity="0.501961" points="93,1 118,22 125,-16" />
<polygon fill="#2c2417" fill-opacity="0.501961" points="-9,43 17,96 45,84" />
<polygon fill="#ad8d6d" fill-opacity="0.501961" points="98,38 75,68 141,41" />
<polygon fill="#4e3f27" fill-opacity="0.501961" points="204,124 241,60 240,127" />
<polygon fill="#f8d4a7" fill-opacity="0.501961" points="174,122 155,117 165,124" />
<polygon fill="#2a2115" fill-opacity="0.501961" points="138,106 154,91 161,116" />
<polygon fill="#a2947d" fill-opacity="0.501961" points="164,86 128,77 139,99" />
<polygon fill="#9a8368" fill-opacity="0.501961" points="221,29 229,8 221,9" />
<polygon fill="#b59b7f" fill-opacity="0.501961" points="172,138 197,128 142,130" />
</g>
</svg>