<svg xmlns="http://www.w3.org/2000/svg" version="1.1" width="680" height="1024">
<rect x="0" y="0" width="680" height="1024" fill="#787763" />
<g transform="scale(4.000000) translate(0.5 0.5)">
<polygon fill="#000000" fill-opacity="0.501961" points="165,-16 -16,8 185,76" />
<polygon fill="#f7f4df" fill-opacity="0.501961" points="185,125 -15,115 5,195" />
<polygon fill="#000000" fill-opacity="0.501961" points="6,-16 -16,55 138,26" />
<polygon fill="#444000" fill-opacity="0.501961" points="50,107 42,212 165,205" />
<polygon fill="#fdffff" fill-opacity="0.501961" points="-5,92 103,45 -16,51" />
<polygon fill="#cfd6cb" fill-opacity="0.501961" points="183,229 -16,213 67,271" />
<polygon fill="#e4ddc4" fill-opacity="0.501961" points="89,193 72,113 167,61" />
<polygon fill="#450200" fill-opacity="0.501961" points="122,92 126,60 14,75" />
<polygon fill="#f6efd2" fill-opacity="0.501961" points="-13,130 -11,183 114,178" />
<polygon fill="#152500" fill-opacity="0.501961" points="94,245 137,181 35,185" />
<polygon fill="#a0bffa" fill-opacity="0.501961" points="185,75 121,57 167,157" />
<polygon fill="#928600" fill-opacity="0.501961" points="170,224 171,149 105,151" />
<polygon fill="#e9f9ff" fill-opacity="0.501961" points="12,71 57,111 9,95" />
<polygon fill="#000000" fill-opacity="0.501961" points="-13,48 118,28 5,-16" />
<polygon fill="#ffffff" fill-opacity="0.501961" points="146,203 120,212 129,247" />
<polygon fill="#e9eef4" fill-opacity="0.501961" points="0,235 30,243 37,170" />
<polygon fill="#fbffeb" fill-opacity="0.501961" points="87,63 12,70 98,33" />
<polygon fill="#f0fcff" fill-opacity="0.501961" points="52,113 163,133 131,154" />
<polygon fill="#000000" fill-opacity="0.501961" points="98,44 185,23 166,69" />
<polygon fill="#0d2200" fill-opacity="0.501961" points="66,118 94,154 39,138" />
<polygon fill="#000020" fill-opacity="0.501961" points="-13,130 46,114 25,105" />
<polygon fill="#be7973" fill-opacity="0.501961" points="108,-16 114,34 165,0" />
<polygon fill="#0c2841" fill-opacity="0.501961" points="126,123 171,100 93,116" />
<polygon fill="#060e00" fill-opacity="0.501961" points="157,226 117,180 182,214" />
<polygon fill="#000700" fill-opacity="0.501961" points="125,83 96,94 98,-16" />
<polygon fill="#000a00" fill-opacity="0.501961" points="31,207 98,205 43,177" />
<polygon fill="#f5a700" fill-opacity="0.501961" points="92,110 129,106 130,88" />
<polygon fill="#000000" fill-opacity="0.501961" points="-16,19 56,53 127,-16" />
<polygon fill="#011029" fill-opacity="0.501961" points="83,257 23,271 -5,239" />
<polygon fill="#473900" fill-opacity="0.501961" points="49,240 77,240 20,220" />
<polygon fill="#daeaff" fill-opacity="0.501961" points="15,171 53,120 -16,129" />
<polygon fill="#eab734" fill-opacity="0.501961" points="74,222 91,208 29,209" />
<polygon fill="#b99016" fill-opacity="0.501961" points="91,79 104,33 49,84" />
<polygon fill="#000000" fill-opacity="0.501961" points="116,155 117,213 132,157" />
<polygon fill="#e2e4f5" fill-opacity="0.501961" points="160,80 126,55 133,110" />
<polygon fill="#e0ae59" fill-opacity="0.501961" points="113,182 114,142 51,155" />
<polygon fill="#d1e311" fill-opacity="0.501961" points="131,174 142,140 154,203" />
<polygon fill="#2c3200" fill-opacity="0.501961" points="22,182 13,214 -1,197" />
<polygon fill="#000524" fill-opacity="0.501961" points="178,233 91,271 138,271" />
<polygon fill="#450000" fill-opacity="0.501961" points="22,85 47,88 23,68" />
<polygon fill="#a47c32" fill-opacity="0.501961" points="45,128 24,168 63,138" />
<polygon fill="#bddca1" fill-opacity="0.501961" points="133,63 94,36 64,39" />
<polygon fill="#cce1ff" fill-opacity="0.501961" points="44,75 54,54 -16,43" />
<polygon fill="#ad5900" fill-opacity="0.501961" points="55,61 78,85 43,76" />
<polygon fill="#000000" fill-opacity="0.501961" points="172,69 98,46 182,31" />
<polygon fill="#c3cbe5" fill-opacity="0.501961" points="15,233 122,249 63,256" />
<polygon fill="#4c6419" fill-opacity="0.501961" points="94,248 56,158 112,208" />
<polygon fill="#95a5b5" fill-opacity="0.501961" points="57,123 134,86 67,98" />
<polygon fill="#567497" fill-opacity="0.501961" points="160,137 185,63 128,124" />
<polygon fill="#000001" fill-opacity="0.501961" points="-16,1 25,51 131,-11" />
<polygon fill="#e1e9e1" fill-opacity="0.501961" points="99,166 77,175 87,191" />
<polygon fill="#e5d3d3" fill-opacity="0.501961" points="101,254 164,235 99,234" />
<polygon fill="#566e0d" fill-opacity="0.501961" points="127,233 50,218 92,215" />
<polygon fill="#0e2e00" fill-opacity="0.501961" points="49,116 65,138 95,139" />
<polygon fill="#c5d2de" fill-opacity="0.501961" points="122,129 159,116 172,153" />
<polygon fill="#c3cdbb" fill-opacity="0.501961" points="80,234 29,204 -16,219" />
<polygon fill="#443f00" fill-opacity="0.501961" points="185,203 161,179 139,231" />
<polygon fill="#988500" fill-opacity="0.501961" points="185,162 158,204 140,141" />
<polygon fill="#ffffeb" fill-opacity="0.501961" points="131,232 118,213 146,209" />
<polygon fill="#e4f9fa" fill-opacity="0.501961" points="65,69 51,46 82,59" />
<polygon fill="#a8b5de" fill-opacity="0.501961" points="-16,80 33,105 13,47" />
<polygon fill="#335d9a" fill-opacity="0.501961" points="24,102 -16,81 -16,146" />
<polygon fill="#fff3cd" fill-opacity="0.501961" points="53,183 51,147 26,165" />
<polygon fill="#e48627" fill-opacity="0.501961" points="103,244 123,229 139,233" />
<polygon fill="#9d6820" fill-opacity="0.501961" points="124,153 115,141 92,186" />
<polygon fill="#071a00" fill-opacity="0.501961" points="93,194 37,208 31,191" />
<polygon fill="#eaeffd" fill-opacity="0.501961" points="149,133 85,115 133,156" />
<polygon fill="#512900" fill-opacity="0.501961" points="68,243 71,235 45,234" />
<polygon fill="#467900" fill-opacity="0.501961" points="62,36 60,51 81,37" />
<polygon fill="#aacdf9" fill-opacity="0.501961" points="8,117 18,107 -16,111" />
<polygon fill="#7e6a40" fill-opacity="0.501961" points="13,164 16,172 -7,182" />
<polygon fill="#4b6f00" fill-opacity="0.501961" points="94,46 94,72 113,46" />
<polygon fill="#1b1303" fill-opacity="0.501961" points="129,174 134,204 65,202" />
<polygon fill="#c1cae5" fill-opacity="0.501961" points="34,244 -11,193 -10,229" />
<polygon fill="#f3f9e7" fill-opacity="0.501961" points="110,139 91,139 92,163" />
<polygon fill="#e19816" fill-opacity="0.501961" points="30,172 37,154 15,179" />
<polygon fill="#1f404b" fill-opacity="0.501961" points="75,114 15,102 22,118" />
<polygon fill="#d9a600" fill-opacity="0.501961" points="128,108 128,90 99,107" />
<polygon fill="#c9d4ee" fill-opacity="0.501961" points="42,92 1,88 53,112" />
<polygon fill="#4e5a72" fill-opacity="0.501961" points="46,252 91,271 131,252" />
<polygon fill="#303934" fill-opacity="0.501961" points="148,113 167,90 121,120" />
<polygon fill="#000000" fill-opacity="0.501961" points="107,2 47,-16 110,48" />
<polygon fill="#f2f3f4" fill-opacity="0.501961" points="85,35 98,38 66,53" />
<polygon fill="#ddeeff" fill-opacity="0.501961" points="82,135 68,118 97,118" />
<polygon fill="#e7e8e4" fill-opacity="0.501961" points="43,158 21,220 20,190" />
<polygon fill="#190700" fill-opacity="0.501961" points="98,94 102,52 130,69" />
<polygon fill="#eee5ed" fill-opacity="0.501961" points="62,168 77,152 60,159" />
<polygon fill="#d0d3c6" fill-opacity="0.501961" points="58,232 76,224 90,238" />
<polygon fill="#dde3ff" fill-opacity="0.501961" points="143,73 111,54 125,54" />
<polygon fill="#5476a3" fill-opacity="0.501961" points="178,137 175,67 154,66" />
<polygon fill="#762c00" fill-opacity="0.501961" points="79,60 90,85 62,85" />
<polygon fill="#908639" fill-opacity="0.501961" points="85,169 71,168 89,125" />
<polygon fill="#e2e9f0" fill-opacity="0.501961" points="-9,176 11,177 12,195" />
<polygon fill="#506d22" fill-opacity="0.501961" points="123,213 86,206 86,246" />
<polygon fill="#dbe4f7" fill-opacity="0.501961" points="21,120 46,118 -8,182" />
<polygon fill="#5a7ea9" fill-opacity="0.501961" points="-5,43 27,49 -15,64" />
<polygon fill="#5a3731" fill-opacity="0.501961" points="184,-8 111,26 119,48" />
<polygon fill="#eff5ef" fill-opacity="0.501961" points="25,54 53,46 37,74" />
<polygon fill="#8297bb" fill-opacity="0.501961" points="45,95 44,79 77,104" />
<polygon fill="#af7e4e" fill-opacity="0.501961" points="57,134 83,160 35,149" />
</g>
</svg>