<svg xmlns="http://www.w3.org/2000/svg" version="1.1" width="1024" height="684">
<rect x="0" y="0" width="1024" height="684" fill="#c1c0b2" />
<g transform="scale(4.000000) translate(0.5 0.5)">
<polygon fill="#3a1d00" fill-opacity="0.501961" points="63,58 228,113 21,141" />
<polygon fill="#ffffff" fill-opacity="0.501961" points="-16,28 271,101 145,-16" />
<polygon fill="#ffffff" fill-opacity="0.501961" points="-16,18 -16,112 201,-16" />
<polygon fill="#973c00" fill-opacity="0.501961" points="271,18 173,21 242,-16" />
<polygon fill="#6b6b59" fill-opacity="0.501961" points="-16,125 144,51 181,183" />
<polygon fill="#000000" fill-opacity="0.501961" points="-14,-10 -16,25 93,-16" />
<polygon fill="#ffffff" fill-opacity="0.501961" points="181,36 271,32 251,186" />
<polygon fill="#ffffff" fill-opacity="0.501961" points="1,186 154,175 -16,129" />
<polygon fill="#110000" fill-opacity="0.501961" points="69,62 95,108 155,105" />
<polygon fill="#899470" fill-opacity="0.501961" points="94,118 235,84 178,160" />
<polygon fill="#fdfff9" fill-opacity="0.501961" points="224,106 271,174 168,172" />
<polygon fill="#7ba1a7" fill-opacity="0.501961" points="52,146 53,92 -16,104" />
<polygon fill="#ffffff" fill-opacity="0.501961" points="270,59 -16,61 69,-16" />
<polygon fill="#1d0500" fill-opacity="0.501961" points="134,130 185,103 147,140" />
<polygon fill="#000500" fill-opacity="0.501961" points="219,2 183,21 229,19" />
<polygon fill="#562200" fill-opacity="0.501961" points="140,58 120,65 159,102" />
<polygon fill="#ffbe00" fill-opacity="0.501961" points="247,25 271,5 192,-16" />
<polygon fill="#f5fcf8" fill-opacity="0.501961" points="271,35 160,113 152,46" />
<polygon fill="#fffff2" fill-opacity="0.501961" points="120,101 125,33 98,40" />
<polygon fill="#a8c7c7" fill-opacity="0.501961" points="191,136 29,134 150,169" />
<polygon fill="#7a6e3f" fill-opacity="0.501961" points="200,174 213,142 245,120" />
<polygon fill="#e0ca6f" fill-opacity="0.501961" points="99,123 153,124 182,98" />
<polygon fill="#060000" fill-opacity="0.501961" points="152,106 157,79 124,112" />
<polygon fill="#6b766c" fill-opacity="0.501961" points="170,167 198,105 230,94" />
<polygon fill="#476763" fill-opacity="0.501961" points="22,138 17,94 -16,126" />
<polygon fill="#b1caca" fill-opacity="0.501961" points="182,144 228,88 168,123" />
<polygon fill="#441900" fill-opacity="0.501961" points="101,71 111,111 54,63" />
<polygon fill="#c0b34b" fill-opacity="0.501961" points="147,86 81,51 121,96" />
<polygon fill="#a86600" fill-opacity="0.501961" points="172,-3 169,9 194,8" />
<polygon fill="#fb9c7a" fill-opacity="0.501961" points="93,124 69,111 78,89" />
<polygon fill="#510e00" fill-opacity="0.501961" points="92,130 59,95 61,119" />
<polygon fill="#051805" fill-opacity="0.501961" points="3,10 -16,-7 60,-2" />
<polygon fill="#bbc5da" fill-opacity="0.501961" points="100,113 98,125 138,128" />
<polygon fill="#785b00" fill-opacity="0.501961" points="209,93 185,111 176,98" />
<polygon fill="#ffffff" fill-opacity="0.501961" points="237,126 171,186 183,152" />
<polygon fill="#c9c0b5" fill-opacity="0.501961" points="73,77 30,115 43,124" />
<polygon fill="#f5f8f8" fill-opacity="0.501961" points="-8,81 218,22 -2,12" />
<polygon fill="#9db5a9" fill-opacity="0.501961" points="166,80 214,88 149,102" />
<polygon fill="#fcfdfe" fill-opacity="0.501961" points="153,76 89,-7 270,96" />
<polygon fill="#faffff" fill-opacity="0.501961" points="61,182 146,175 -16,128" />
<polygon fill="#3c2700" fill-opacity="0.501961" points="128,88 128,59 146,65" />
<polygon fill="#000000" fill-opacity="0.501961" points="99,119 80,125 81,136" />
<polygon fill="#6b1d06" fill-opacity="0.501961" points="72,64 58,93 39,94" />
<polygon fill="#c8d49c" fill-opacity="0.501961" points="234,16 168,30 271,38" />
<polygon fill="#ffd183" fill-opacity="0.501961" points="136,92 131,83 152,71" />
<polygon fill="#221112" fill-opacity="0.501961" points="80,111 119,83 131,101" />
<polygon fill="#6e8a91" fill-opacity="0.501961" points="119,89 110,124 132,121" />
<polygon fill="#832b13" fill-opacity="0.501961" points="55,98 91,73 60,113" />
<polygon fill="#4dae00" fill-opacity="0.501961" points="90,58 99,57 96,71" />
<polygon fill="#677459" fill-opacity="0.501961" points="242,121 248,113 232,114" />
<polygon fill="#463c27" fill-opacity="0.501961" points="227,94 211,104 202,126" />
<polygon fill="#94aca8" fill-opacity="0.501961" points="120,156 70,126 15,131" />
<polygon fill="#ff8f00" fill-opacity="0.501961" points="242,21 210,-16 271,8" />
<polygon fill="#f5faf7" fill-opacity="0.501961" points="223,115 271,104 246,17" />
<polygon fill="#f7f8f8" fill-opacity="0.501961" points="119,80 136,-8 45,-14" />
<polygon fill="#3d2b09" fill-opacity="0.501961" points="198,136 184,143 207,119" />
<polygon fill="#e9da77" fill-opacity="0.501961" points="235,-9 182,-8 177,20" />
<polygon fill="#f5f8fd" fill-opacity="0.501961" points="197,186 258,107 259,186" />
<polygon fill="#8f3826" fill-opacity="0.501961" points="101,114 83,109 85,76" />
<polygon fill="#0b0a00" fill-opacity="0.501961" points="196,22 229,17 198,13" />
<polygon fill="#000000" fill-opacity="0.501961" points="36,127 44,123 51,127" />
<polygon fill="#8a9e98" fill-opacity="0.501961" points="53,76 23,136 1,102" />
<polygon fill="#110400" fill-opacity="0.501961" points="124,147 116,146 124,142" />
<polygon fill="#f8faf7" fill-opacity="0.501961" points="183,21 144,-16 97,71" />
<polygon fill="#302500" fill-opacity="0.501961" points="176,111 134,131 148,137" />
<polygon fill="#435d55" fill-opacity="0.501961" points="67,149 47,136 29,139" />
<polygon fill="#96a59e" fill-opacity="0.501961" points="35,62 18,79 38,74" />
<polygon fill="#d89132" fill-opacity="0.501961" points="86,65 65,67 70,59" />
<polygon fill="#ffffff" fill-opacity="0.501961" points="62,36 30,84 56,74" />
<polygon fill="#1d312c" fill-opacity="0.501961" points="17,130 -1,131 29,139" />
<polygon fill="#4e0b00" fill-opacity="0.501961" points="157,92 152,83 135,81" />
<polygon fill="#c2ced5" fill-opacity="0.501961" points="105,108 92,134 109,120" />
<polygon fill="#ffc9a6" fill-opacity="0.501961" points="126,85 128,72 109,74" />
<polygon fill="#e9b98f" fill-opacity="0.501961" points="58,94 74,85 70,75" />
<polygon fill="#d89f7f" fill-opacity="0.501961" points="72,97 76,125 87,116" />
<polygon fill="#e9c75b" fill-opacity="0.501961" points="139,109 122,133 159,112" />
<polygon fill="#927112" fill-opacity="0.501961" points="139,123 152,127 178,106" />
<polygon fill="#817a50" fill-opacity="0.501961" points="218,147 181,186 197,186" />
<polygon fill="#393f2b" fill-opacity="0.501961" points="186,146 169,167 175,153" />
<polygon fill="#f8fbf9" fill-opacity="0.501961" points="189,186 230,108 163,175" />
<polygon fill="#210904" fill-opacity="0.501961" points="61,128 70,121 68,98" />
<polygon fill="#f7fafa" fill-opacity="0.501961" points="11,89 -16,29 76,-8" />
<polygon fill="#998535" fill-opacity="0.501961" points="224,3 192,5 183,19" />
<polygon fill="#d7deea" fill-opacity="0.501961" points="64,129 76,125 66,123" />
<polygon fill="#601f00" fill-opacity="0.501961" points="180,-1 172,2 172,11" />
<polygon fill="#ffd620" fill-opacity="0.501961" points="271,21 223,7 235,21" />
<polygon fill="#58ab05" fill-opacity="0.501961" points="101,83 112,71 107,65" />
<polygon fill="#000000" fill-opacity="0.501961" points="108,107 88,84 118,98" />
<polygon fill="#522a0d" fill-opacity="0.501961" points="64,76 57,67 82,63" />
<polygon fill="#f7f7f3" fill-opacity="0.501961" points="134,41 157,84 174,-16" />
<polygon fill="#9ca15b" fill-opacity="0.501961" points="210,28 237,23 236,32" />
<polygon fill="#bfc4c7" fill-opacity="0.501961" points="36,124 33,114 61,124" />
<polygon fill="#476460" fill-opacity="0.501961" points="170,186 117,163 191,173" />
<polygon fill="#7bab90" fill-opacity="0.501961" points="-16,28 29,9 -4,13" />
<polygon fill="#a2b7b3" fill-opacity="0.501961" points="204,85 209,109 225,92" />
<polygon fill="#586a63" fill-opacity="0.501961" points="9,117 -16,112 15,97" />
<polygon fill="#edffff" fill-opacity="0.501961" points="53,105 54,97 46,101" />
<polygon fill="#b4c0ba" fill-opacity="0.501961" points="88,145 116,161 118,124" />
<polygon fill="#886a23" fill-opacity="0.501961" points="137,114 121,138 135,128" />
<polygon fill="#652611" fill-opacity="0.501961" points="49,77 50,92 58,77" />
</g>
</svg>