<svg xmlns="http://www.w3.org/2000/svg" version="1.1" width="1024" height="684">
<rect x="0" y="0" width="1024" height="684" fill="#645a47" />
<g transform="scale(4.000000) translate(0.5 0.5)">
<polygon fill="#ffffc2" fill-opacity="0.501961" points="232,53 50,100 183,169" />
<polygon fill="#00000d" fill-opacity="0.501961" points="4,186 103,-16 -16,-14" />
<polygon fill="#00000b" fill-opacity="0.501961" points="262,58 47,-1 267,-16" />
<polygon fill="#f9c24f" fill-opacity="0.501961" points="124,168 49,70 119,18" />
<polygon fill="#ffe8b9" fill-opacity="0.501961" points="201,30 118,145 224,123" />
<polygon fill="#000a22" fill-opacity="0.501961" points="106,170 52,90 12,171" />
<polygon fill="#061733" fill-opacity="0.501961" points="271,90 210,-16 237,186" />
<polygon fill="#170c13" fill-opacity="0.501961" points="176,85 112,57 180,-16" />
<polygon fill="#0f1e38" fill-opacity="0.501961" points="109,186 271,170 225,134" />
<polygon fill="#e6aa4a" fill-opacity="0.501961" points="219,125 55,109 144,166" />
<polygon fill="#e6f2ff" fill-opacity="0.501961" points="205,80 172,127 111,95" />
<polygon fill="#f3c979" fill-opacity="0.501961" points="215,49 167,16 224,113" />
<polygon fill="#d6ad4b" fill-opacity="0.501961" points="72,44 153,14 57,100" />
<polygon fill="#161a23" fill-opacity="0.501961" points="3,-16 145,8 -16,90" />
<polygon fill="#cad3ee" fill-opacity="0.501961" points="109,92 156,107 106,61" />
<polygon fill="#b4632c" fill-opacity="0.501961" points="197,60 169,88 125,81" />
<polygon fill="#1b1d29" fill-opacity="0.501961" points="58,14 62,136 -16,104" />
<polygon fill="#333c45" fill-opacity="0.501961" points="197,176 271,166 242,56" />
<polygon fill="#e4b25f" fill-opacity="0.501961" points="226,71 211,134 175,157" />
<polygon fill="#e3f0ff" fill-opacity="0.501961" points="206,78 159,115 202,52" />
<polygon fill="#5b3b1e" fill-opacity="0.501961" points="62,122 126,148 125,186" />
<polygon fill="#ca9c40" fill-opacity="0.501961" points="61,111 67,51 136,116" />
<polygon fill="#1b1b21" fill-opacity="0.501961" points="145,-16 271,5 227,62" />
<polygon fill="#242226" fill-opacity="0.501961" points="117,45 187,-16 150,81" />
<polygon fill="#1d2431" fill-opacity="0.501961" points="76,171 210,156 138,186" />
<polygon fill="#e4cf86" fill-opacity="0.501961" points="219,109 74,123 160,141" />
<polygon fill="#e7cb66" fill-opacity="0.501961" points="124,19 148,19 96,47" />
<polygon fill="#b27837" fill-opacity="0.501961" points="129,165 193,139 107,141" />
<polygon fill="#866c3a" fill-opacity="0.501961" points="91,77 106,44 114,111" />
<polygon fill="#c38649" fill-opacity="0.501961" points="194,31 170,78 194,65" />
<polygon fill="#2b323b" fill-opacity="0.501961" points="-16,173 71,14 37,186" />
<polygon fill="#e2cc76" fill-opacity="0.501961" points="70,96 120,138 79,61" />
<polygon fill="#aa724d" fill-opacity="0.501961" points="105,43 152,88 121,78" />
<polygon fill="#d38830" fill-opacity="0.501961" points="57,75 70,121 107,143" />
<polygon fill="#222126" fill-opacity="0.501961" points="24,39 23,-16 208,6" />
<polygon fill="#1a151f" fill-opacity="0.501961" points="154,75 181,62 179,31" />
<polygon fill="#afafb1" fill-opacity="0.501961" points="109,51 105,92 131,112" />
<polygon fill="#dda96b" fill-opacity="0.501961" points="186,61 158,79 178,84" />
<polygon fill="#3a3f45" fill-opacity="0.501961" points="223,115 271,172 183,173" />
<polygon fill="#d5b86e" fill-opacity="0.501961" points="195,32 215,58 164,21" />
<polygon fill="#e0e1e7" fill-opacity="0.501961" points="119,77 139,114 185,107" />
<polygon fill="#c69858" fill-opacity="0.501961" points="196,148 220,106 144,165" />
<polygon fill="#231c1d" fill-opacity="0.501961" points="165,162 183,165 201,146" />
<polygon fill="#2e3a43" fill-opacity="0.501961" points="147,169 -16,177 28,143" />
<polygon fill="#241d1e" fill-opacity="0.501961" points="35,101 79,155 51,67" />
<polygon fill="#dfbb63" fill-opacity="0.501961" points="195,120 211,47 223,73" />
<polygon fill="#e1e8f2" fill-opacity="0.501961" points="203,89 181,112 199,47" />
<polygon fill="#30363d" fill-opacity="0.501961" points="220,147 225,61 271,53" />
<polygon fill="#a87a17" fill-opacity="0.501961" points="105,102 130,116 92,78" />
<polygon fill="#bc7d38" fill-opacity="0.501961" points="58,77 61,107 83,40" />
<polygon fill="#15161b" fill-opacity="0.501961" points="124,47 173,68 157,75" />
<polygon fill="#2d2e33" fill-opacity="0.501961" points="83,12 53,85 49,39" />
<polygon fill="#bc7f4b" fill-opacity="0.501961" points="197,54 186,73 180,23" />
<polygon fill="#212125" fill-opacity="0.501961" points="271,-16 164,17 262,66" />
<polygon fill="#ad754c" fill-opacity="0.501961" points="140,86 162,75 116,72" />
<polygon fill="#aaa093" fill-opacity="0.501961" points="115,102 101,76 112,46" />
<polygon fill="#e4ce8c" fill-opacity="0.501961" points="222,99 108,134 176,136" />
<polygon fill="#caac50" fill-opacity="0.501961" points="82,83 111,25 85,39" />
<polygon fill="#e1e3e8" fill-opacity="0.501961" points="127,105 204,72 177,116" />
<polygon fill="#d4ac6c" fill-opacity="0.501961" points="215,128 223,87 193,147" />
<polygon fill="#563c22" fill-opacity="0.501961" points="75,142 105,153 62,111" />
<polygon fill="#363c43" fill-opacity="0.501961" points="233,97 271,65 216,51" />
<polygon fill="#b08546" fill-opacity="0.501961" points="103,158 142,164 196,132" />
<polygon fill="#d7d5d8" fill-opacity="0.501961" points="202,50 190,35 204,67" />
<polygon fill="#e1c879" fill-opacity="0.501961" points="80,112 92,94 156,143" />
<polygon fill="#c6993e" fill-opacity="0.501961" points="195,35 224,80 214,48" />
<polygon fill="#22292b" fill-opacity="0.501961" points="157,165 125,175 97,163" />
<polygon fill="#f2c48c" fill-opacity="0.501961" points="185,47 189,54 176,69" />
<polygon fill="#a38253" fill-opacity="0.501961" points="165,20 186,25 196,50" />
<polygon fill="#2d3035" fill-opacity="0.501961" points="69,18 34,75 110,18" />
<polygon fill="#3a3f45" fill-opacity="0.501961" points="271,175 243,107 159,179" />
<polygon fill="#8f6811" fill-opacity="0.501961" points="101,53 102,91 92,71" />
<polygon fill="#6c626b" fill-opacity="0.501961" points="153,51 169,48 161,43" />
<polygon fill="#a7723f" fill-opacity="0.501961" points="155,82 187,68 162,89" />
<polygon fill="#1c1d24" fill-opacity="0.501961" points="-16,125 17,153 26,42" />
<polygon fill="#c1c1c0" fill-opacity="0.501961" points="173,116 117,100 144,118" />
<polygon fill="#1c1718" fill-opacity="0.501961" points="124,62 146,74 133,30" />
<polygon fill="#825f3c" fill-opacity="0.501961" points="120,40 113,63 121,75" />
<polygon fill="#866236" fill-opacity="0.501961" points="100,139 103,158 142,151" />
<polygon fill="#be9f61" fill-opacity="0.501961" points="142,153 159,162 186,152" />
<polygon fill="#262527" fill-opacity="0.501961" points="218,28 252,-16 103,13" />
<polygon fill="#e7e8ea" fill-opacity="0.501961" points="178,109 204,68 180,77" />
<polygon fill="#99896d" fill-opacity="0.501961" points="112,40 127,33 102,65" />
<polygon fill="#1e1c22" fill-opacity="0.501961" points="47,76 65,50 47,115" />
<polygon fill="#be8e3f" fill-opacity="0.501961" points="65,55 97,34 59,94" />
<polygon fill="#2d2625" fill-opacity="0.501961" points="180,36 183,59 143,11" />
<polygon fill="#daba68" fill-opacity="0.501961" points="113,118 180,117 148,127" />
<polygon fill="#d1b55d" fill-opacity="0.501961" points="106,44 144,21 107,28" />
<polygon fill="#72696f" fill-opacity="0.501961" points="146,39 152,37 144,32" />
<polygon fill="#cdcab7" fill-opacity="0.501961" points="112,68 122,93 142,94" />
<polygon fill="#e5c77c" fill-opacity="0.501961" points="166,124 214,107 224,82" />
<polygon fill="#6f5943" fill-opacity="0.501961" points="145,18 165,21 148,23" />
<polygon fill="#cca742" fill-opacity="0.501961" points="92,100 86,80 129,118" />
<polygon fill="#ca8b30" fill-opacity="0.501961" points="98,133 60,104 65,90" />
<polygon fill="#d7c783" fill-opacity="0.501961" points="216,65 215,101 198,42" />
<polygon fill="#303339" fill-opacity="0.501961" points="245,76 261,98 206,142" />
<polygon fill="#684326" fill-opacity="0.501961" points="120,56 122,43 134,75" />
<polygon fill="#ce9051" fill-opacity="0.501961" points="151,87 149,76 177,72" />
<polygon fill="#e3d4a8" fill-opacity="0.501961" points="175,135 201,116 147,135" />
<polygon fill="#201f24" fill-opacity="0.501961" points="77,40 184,-16 103,-11" />
</g>
</svg>