<svg xmlns="http://www.w3.org/2000/svg" version="1.1" width="1024" height="680">
<rect x="0" y="0" width="1024" height="680" fill="#c1ad98" />
<g transform="scale(4.000000) translate(0.5 0.5)">
<polygon fill="#000000" fill-opacity="0.501961" points="-16,30 -2,-16 160,0" />
<polygon fill="#964807" fill-opacity="0.501961" points="148,34 240,151 38,132" />
<polygon fill="#ffffff" fill-opacity="0.501961" points="-16,36 8,185 146,6" />
<polygon fill="#000000" fill-opacity="0.501961" points="259,23 120,-1 256,-16" />
<polygon fill="#eefaee" fill-opacity="0.501961" points="90,10 263,135 224,13" />
<polygon fill="#feffff" fill-opacity="0.501961" points="204,171 -1,170 -16,108" />
<polygon fill="#9a0000" fill-opacity="0.501961" points="49,89 190,152 97,145" />
<polygon fill="#f7ffff" fill-opacity="0.501961" points="228,185 271,87 165,167" />
<polygon fill="#253003" fill-opacity="0.501961" points="209,104 107,80 180,62" />
<polygon fill="#130000" fill-opacity="0.501961" points="-16,39 123,-7 -9,-16" />
<polygon fill="#ff0001" fill-opacity="0.501961" points="220,107 205,144 129,153" />
<polygon fill="#cfd6a3" fill-opacity="0.501961" points="157,133 67,73 211,112" />
<polygon fill="#ffffff" fill-opacity="0.501961" points="192,9 42,17 -16,101" />
<polygon fill="#493711" fill-opacity="0.501961" points="87,82 46,110 134,137" />
<polygon fill="#1e0000" fill-opacity="0.501961" points="140,-6 257,25 255,-16" />
<polygon fill="#c1ac2e" fill-opacity="0.501961" points="190,12 138,83 112,55" />
<polygon fill="#bdc5b4" fill-opacity="0.501961" points="61,71 5,123 73,144" />
<polygon fill="#84834f" fill-opacity="0.501961" points="190,103 170,81 123,136" />
<polygon fill="#a15400" fill-opacity="0.501961" points="89,44 134,62 133,49" />
<polygon fill="#440900" fill-opacity="0.501961" points="185,6 98,-16 58,8" />
<polygon fill="#f2f2eb" fill-opacity="0.501961" points="249,88 172,35 138,51" />
<polygon fill="#e8f0e4" fill-opacity="0.501961" points="186,185 66,185 271,121" />
<polygon fill="#ff1414" fill-opacity="0.501961" points="217,127 153,154 99,139" />
<polygon fill="#e9efe6" fill-opacity="0.501961" points="157,170 53,119 8,185" />
<polygon fill="#96795c" fill-opacity="0.501961" points="263,62 205,43 263,89" />
<polygon fill="#f9fffd" fill-opacity="0.501961" points="118,56 10,36 98,79" />
<polygon fill="#ff130f" fill-opacity="0.501961" points="215,108 198,92 209,136" />
<polygon fill="#e3eae3" fill-opacity="0.501961" points="268,30 271,72 193,15" />
<polygon fill="#bab5b2" fill-opacity="0.501961" points="136,117 88,94 179,85" />
<polygon fill="#000000" fill-opacity="0.501961" points="147,81 146,97 127,84" />
<polygon fill="#eeefeb" fill-opacity="0.501961" points="191,62 223,124 260,93" />
<polygon fill="#1c0000" fill-opacity="0.501961" points="175,21 157,37 158,28" />
<polygon fill="#d7a807" fill-opacity="0.501961" points="109,81 145,57 120,35" />
<polygon fill="#ffff94" fill-opacity="0.501961" points="190,102 158,131 201,120" />
<polygon fill="#4d340c" fill-opacity="0.501961" points="89,97 69,124 141,122" />
<polygon fill="#000000" fill-opacity="0.501961" points="152,85 155,64 178,82" />
<polygon fill="#b7b036" fill-opacity="0.501961" points="167,132 90,109 125,132" />
<polygon fill="#3b1700" fill-opacity="0.501961" points="98,-16 -10,-10 -1,37" />
<polygon fill="#f3f7ed" fill-opacity="0.501961" points="158,36 82,10 -16,49" />
<polygon fill="#493320" fill-opacity="0.501961" points="157,101 141,122 192,93" />
<polygon fill="#acea68" fill-opacity="0.501961" points="142,45 154,85 132,77" />
<polygon fill="#862417" fill-opacity="0.501961" points="109,75 70,93 69,112" />
<polygon fill="#dbdacd" fill-opacity="0.501961" points="271,161 208,185 126,150" />
<polygon fill="#bbaf9a" fill-opacity="0.501961" points="94,78 18,102 38,127" />
<polygon fill="#f2f8f1" fill-opacity="0.501961" points="39,20 8,138 -16,47" />
<polygon fill="#918484" fill-opacity="0.501961" points="184,9 158,45 199,12" />
<polygon fill="#280500" fill-opacity="0.501961" points="194,105 204,96 169,79" />
<polygon fill="#850000" fill-opacity="0.501961" points="84,134 132,135 64,110" />
<polygon fill="#0f0100" fill-opacity="0.501961" points="115,79 128,80 132,67" />
<polygon fill="#dedbd0" fill-opacity="0.501961" points="181,74 268,153 251,84" />
<polygon fill="#f3b36e" fill-opacity="0.501961" points="109,91 119,67 76,105" />
<polygon fill="#ff1c25" fill-opacity="0.501961" points="219,118 187,149 120,150" />
<polygon fill="#ebeae2" fill-opacity="0.501961" points="186,11 134,44 86,13" />
<polygon fill="#3f2003" fill-opacity="0.501961" points="-16,-13 25,22 146,-3" />
<polygon fill="#948700" fill-opacity="0.501961" points="174,64 142,58 142,74" />
<polygon fill="#bdac9d" fill-opacity="0.501961" points="163,102 180,92 170,82" />
<polygon fill="#71751d" fill-opacity="0.501961" points="116,36 123,64 129,44" />
<polygon fill="#dadbd0" fill-opacity="0.501961" points="244,74 184,185 271,131" />
<polygon fill="#fafef6" fill-opacity="0.501961" points="117,29 75,37 117,49" />
<polygon fill="#adab9b" fill-opacity="0.501961" points="200,178 271,126 256,157" />
<polygon fill="#a03200" fill-opacity="0.501961" points="126,52 102,48 130,63" />
<polygon fill="#daca46" fill-opacity="0.501961" points="179,102 181,130 151,126" />
<polygon fill="#f89d01" fill-opacity="0.501961" points="102,78 141,43 136,66" />
<polygon fill="#2f1102" fill-opacity="0.501961" points="117,131 73,115 84,102" />
<polygon fill="#ff2928" fill-opacity="0.501961" points="216,132 179,146 211,101" />
<polygon fill="#f4f6ef" fill-opacity="0.501961" points="101,75 119,58 53,32" />
<polygon fill="#4a1700" fill-opacity="0.501961" points="109,5 248,4 185,-16" />
<polygon fill="#1c1605" fill-opacity="0.501961" points="108,113 127,116 92,97" />
<polygon fill="#97830c" fill-opacity="0.501961" points="129,136 159,134 159,117" />
<polygon fill="#c5c0b2" fill-opacity="0.501961" points="31,139 86,137 29,87" />
<polygon fill="#fccd26" fill-opacity="0.501961" points="154,35 145,41 151,64" />
<polygon fill="#eeece2" fill-opacity="0.501961" points="168,167 128,158 218,144" />
<polygon fill="#d9c7b8" fill-opacity="0.501961" points="147,97 143,117 100,88" />
<polygon fill="#da1616" fill-opacity="0.501961" points="102,128 87,136 135,151" />
<polygon fill="#827035" fill-opacity="0.501961" points="83,99 97,94 100,121" />
<polygon fill="#ffffef" fill-opacity="0.501961" points="173,113 173,128 167,113" />
<polygon fill="#fffedc" fill-opacity="0.501961" points="188,105 202,108 189,115" />
<polygon fill="#000000" fill-opacity="0.501961" points="163,70 166,91 152,68" />
<polygon fill="#2c3004" fill-opacity="0.501961" points="147,94 150,81 119,79" />
<polygon fill="#e3e3d8" fill-opacity="0.501961" points="-16,116 -15,175 117,147" />
<polygon fill="#d1cfc1" fill-opacity="0.501961" points="239,20 206,78 210,13" />
<polygon fill="#b95e09" fill-opacity="0.501961" points="170,139 203,120 142,136" />
<polygon fill="#f4faf0" fill-opacity="0.501961" points="124,35 160,20 130,47" />
<polygon fill="#4f453a" fill-opacity="0.501961" points="184,20 193,11 174,21" />
<polygon fill="#450c07" fill-opacity="0.501961" points="86,97 98,77 77,97" />
<polygon fill="#f1eec5" fill-opacity="0.501961" points="181,51 136,55 142,44" />
<polygon fill="#e3e7dd" fill-opacity="0.501961" points="89,50 8,88 102,76" />
<polygon fill="#c3c3ae" fill-opacity="0.501961" points="170,6 149,12 187,13" />
<polygon fill="#552b00" fill-opacity="0.501961" points="194,104 154,65 180,75" />
<polygon fill="#c4d49b" fill-opacity="0.501961" points="149,81 161,91 154,97" />
<polygon fill="#f4efa2" fill-opacity="0.501961" points="145,121 139,132 134,127" />
<polygon fill="#cdded6" fill-opacity="0.501961" points="136,67 131,75 138,79" />
<polygon fill="#1b2216" fill-opacity="0.501961" points="53,13 -16,9 -16,39" />
<polygon fill="#a34f3c" fill-opacity="0.501961" points="76,117 68,98 76,90" />
<polygon fill="#b0944d" fill-opacity="0.501961" points="116,124 126,118 105,110" />
<polygon fill="#bcc0aa" fill-opacity="0.501961" points="84,11 121,7 102,15" />
<polygon fill="#e6e4df" fill-opacity="0.501961" points="189,67 151,53 200,15" />
<polygon fill="#915b14" fill-opacity="0.501961" points="166,75 203,97 192,82" />
<polygon fill="#413900" fill-opacity="0.501961" points="124,133 125,123 101,126" />
<polygon fill="#e3e3d9" fill-opacity="0.501961" points="198,150 241,101 235,154" />
</g>
</svg>