<svg xmlns="http://www.w3.org/2000/svg" version="1.1" width="1024" height="684">
<rect x="0" y="0" width="1024" height="684" fill="#756d66" />
<g transform="scale(4.000000) translate(0.5 0.5)">
<polygon fill="#000000" fill-opacity="0.501961" points="-16,166 4,-16 94,186" />
<polygon fill="#e1f3f6" fill-opacity="0.501961" points="126,-4 34,73 271,86" />
<polygon fill="#d6f6e0" fill-opacity="0.501961" points="210,139 131,157 248,24" />
<polygon fill="#000000" fill-opacity="0.501961" points="128,172 238,127 271,170" />
<polygon fill="#000000" fill-opacity="0.501961" points="148,-16 -11,40 4,-16" />
<polygon fill="#c9d5d9" fill-opacity="0.501961" points="34,47 157,4 101,142" />
<polygon fill="#000000" fill-opacity="0.501961" points="8,-16 -16,166 89,186" />
<polygon fill="#855829" fill-opacity="0.501961" points="129,186 195,20 102,68" />
<polygon fill="#a68687" fill-opacity="0.501961" points="152,7 265,25 251,110" />
<polygon fill="#000000" fill-opacity="0.501961" points="223,165 96,152 135,186" />
<polygon fill="#cde7ea" fill-opacity="0.501961" points="186,154 201,104 122,155" />
<polygon fill="#6e3500" fill-opacity="0.501961" points="140,148 193,70 101,116" />
<polygon fill="#0f0000" fill-opacity="0.501961" points="156,186 233,111 220,186" />
<polygon fill="#b8aa97" fill-opacity="0.501961" points="72,136 52,87 233,35" />
<polygon fill="#cbe2e8" fill-opacity="0.501961" points="101,143 85,107 139,157" />
<polygon fill="#070000" fill-opacity="0.501961" points="23,27 117,-6 -16,-1" />
<polygon fill="#dbf8ff" fill-opacity="0.501961" points="99,44 149,51 155,6" />
<polygon fill="#000000" fill-opacity="0.501961" points="175,27 151,48 168,48" />
<polygon fill="#badff4" fill-opacity="0.501961" points="86,97 110,11 44,65" />
<polygon fill="#21121e" fill-opacity="0.501961" points="35,68 55,89 85,97" />
<polygon fill="#b8ced0" fill-opacity="0.501961" points="117,44 198,51 230,96" />
<polygon fill="#ea9411" fill-opacity="0.501961" points="159,77 137,106 128,78" />
<polygon fill="#000012" fill-opacity="0.501961" points="172,106 143,117 132,104" />
<polygon fill="#db8019" fill-opacity="0.501961" points="165,95 180,121 188,78" />
<polygon fill="#9a9489" fill-opacity="0.501961" points="205,129 271,59 212,8" />
<polygon fill="#a87d71" fill-opacity="0.501961" points="39,64 28,28 129,-3" />
<polygon fill="#c4d7d7" fill-opacity="0.501961" points="190,149 217,123 147,113" />
<polygon fill="#643c36" fill-opacity="0.501961" points="163,-12 143,12 92,-16" />
<polygon fill="#506270" fill-opacity="0.501961" points="111,46 86,71 99,44" />
<polygon fill="#334652" fill-opacity="0.501961" points="120,115 110,79 134,107" />
<polygon fill="#240c00" fill-opacity="0.501961" points="152,88 162,105 177,74" />
<polygon fill="#5a9f4e" fill-opacity="0.501961" points="220,97 208,128 199,84" />
<polygon fill="#fa7000" fill-opacity="0.501961" points="96,108 107,125 111,109" />
<polygon fill="#8d7662" fill-opacity="0.501961" points="170,46 101,68 88,99" />
<polygon fill="#1d0404" fill-opacity="0.501961" points="124,173 93,141 172,179" />
<polygon fill="#9ca799" fill-opacity="0.501961" points="164,160 193,140 121,155" />
<polygon fill="#ffa240" fill-opacity="0.501961" points="158,127 133,121 130,109" />
<polygon fill="#130608" fill-opacity="0.501961" points="59,115 -16,149 3,-16" />
<polygon fill="#6e5051" fill-opacity="0.501961" points="271,156 229,168 254,72" />
<polygon fill="#d3f1f6" fill-opacity="0.501961" points="205,61 221,79 225,108" />
<polygon fill="#cce3f5" fill-opacity="0.501961" points="192,108 184,98 169,105" />
<polygon fill="#050000" fill-opacity="0.501961" points="223,138 127,176 165,186" />
<polygon fill="#c79d67" fill-opacity="0.501961" points="160,96 130,107 117,94" />
<polygon fill="#3a2320" fill-opacity="0.501961" points="200,186 226,103 243,150" />
<polygon fill="#ffffff" fill-opacity="0.501961" points="104,42 143,29 153,7" />
<polygon fill="#9abdd5" fill-opacity="0.501961" points="151,17 95,72 175,29" />
<polygon fill="#897273" fill-opacity="0.501961" points="245,15 182,51 143,-16" />
<polygon fill="#601400" fill-opacity="0.501961" points="127,113 112,139 143,134" />
<polygon fill="#e4c354" fill-opacity="0.501961" points="148,71 146,82 175,82" />
<polygon fill="#ae9a97" fill-opacity="0.501961" points="236,29 176,48 266,80" />
<polygon fill="#a78e8d" fill-opacity="0.501961" points="92,175 54,86 82,99" />
<polygon fill="#beddde" fill-opacity="0.501961" points="224,108 214,128 217,107" />
<polygon fill="#c98924" fill-opacity="0.501961" points="140,132 117,148 138,147" />
<polygon fill="#c1d7d9" fill-opacity="0.501961" points="188,51 158,71 217,75" />
<polygon fill="#b7c1c6" fill-opacity="0.501961" points="66,117 115,101 108,86" />
<polygon fill="#000011" fill-opacity="0.501961" points="171,84 149,99 153,86" />
<polygon fill="#b7c4cd" fill-opacity="0.501961" points="84,125 118,153 83,95" />
<polygon fill="#c5e7fd" fill-opacity="0.501961" points="121,3 136,10 100,18" />
<polygon fill="#9c5104" fill-opacity="0.501961" points="174,72 166,98 193,98" />
<polygon fill="#b78143" fill-opacity="0.501961" points="161,115 149,135 145,113" />
<polygon fill="#461a01" fill-opacity="0.501961" points="146,81 143,87 131,85" />
<polygon fill="#f6faf8" fill-opacity="0.501961" points="76,79 92,54 61,75" />
<polygon fill="#5e382a" fill-opacity="0.501961" points="100,163 88,130 138,180" />
<polygon fill="#876c6d" fill-opacity="0.501961" points="221,66 271,86 231,125" />
<polygon fill="#312b25" fill-opacity="0.501961" points="96,186 6,138 69,128" />
<polygon fill="#7a8e95" fill-opacity="0.501961" points="107,23 131,14 122,28" />
<polygon fill="#040206" fill-opacity="0.501961" points="170,108 139,106 139,117" />
<polygon fill="#d4ddc8" fill-opacity="0.501961" points="160,95 155,95 151,106" />
<polygon fill="#a3a080" fill-opacity="0.501961" points="122,120 114,130 120,107" />
<polygon fill="#35353a" fill-opacity="0.501961" points="160,18 154,17 168,11" />
<polygon fill="#4e372d" fill-opacity="0.501961" points="82,105 83,96 63,86" />
<polygon fill="#9f9384" fill-opacity="0.501961" points="130,57 142,84 159,28" />
<polygon fill="#bce5f9" fill-opacity="0.501961" points="81,87 132,41 101,56" />
<polygon fill="#070000" fill-opacity="0.501961" points="271,179 266,158 191,186" />
<polygon fill="#02112a" fill-opacity="0.501961" points="121,102 112,88 117,89" />
<polygon fill="#caddeb" fill-opacity="0.501961" points="205,118 163,120 145,153" />
<polygon fill="#190b09" fill-opacity="0.501961" points="218,148 228,109 186,172" />
<polygon fill="#09000e" fill-opacity="0.501961" points="151,49 176,38 166,34" />
<polygon fill="#83b67d" fill-opacity="0.501961" points="202,85 184,71 191,99" />
<polygon fill="#a0b6ac" fill-opacity="0.501961" points="148,154 200,145 220,119" />
<polygon fill="#958482" fill-opacity="0.501961" points="213,29 142,68 194,13" />
<polygon fill="#86b0cc" fill-opacity="0.501961" points="46,73 79,81 89,98" />
<polygon fill="#e2e4c8" fill-opacity="0.501961" points="144,148 126,153 113,148" />
<polygon fill="#bbcbd3" fill-opacity="0.501961" points="147,138 170,111 175,141" />
<polygon fill="#8b736f" fill-opacity="0.501961" points="109,186 71,138 82,113" />
<polygon fill="#000000" fill-opacity="0.501961" points="133,161 142,168 165,160" />
<polygon fill="#5a4a4c" fill-opacity="0.501961" points="233,141 224,104 271,151" />
<polygon fill="#ffffff" fill-opacity="0.501961" points="124,31 107,26 119,41" />
<polygon fill="#f9b354" fill-opacity="0.501961" points="112,105 96,106 113,116" />
<polygon fill="#c3d7f0" fill-opacity="0.501961" points="149,49 159,38 135,52" />
<polygon fill="#e8990b" fill-opacity="0.501961" points="186,113 176,117 173,107" />
<polygon fill="#3b221a" fill-opacity="0.501961" points="109,119 115,114 117,140" />
<polygon fill="#b2d3ba" fill-opacity="0.501961" points="190,82 198,134 206,108" />
<polygon fill="#ffffff" fill-opacity="0.501961" points="145,26 148,9 156,8" />
<polygon fill="#1d0000" fill-opacity="0.501961" points="120,139 130,140 134,128" />
<polygon fill="#f89d30" fill-opacity="0.501961" points="130,110 136,110 138,129" />
<polygon fill="#13050c" fill-opacity="0.501961" points="160,97 167,104 149,114" />
<polygon fill="#231917" fill-opacity="0.501961" points="15,-4 -9,10 48,90" />
<polygon fill="#dbcbb5" fill-opacity="0.501961" points="133,91 131,106 128,89" />
<polygon fill="#bb8519" fill-opacity="0.501961" points="152,86 152,76 169,81" />
</g>
</svg>