<svg xmlns="http://www.w3.org/2000/svg" version="1.1" width="1024" height="760">
<rect x="0" y="0" width="1024" height="760" fill="#4f453c" />
<g transform="scale(4.000000) translate(0.5 0.5)">
<polygon fill="#d6c693" fill-opacity="0.501961" points="202,35 35,107 224,148" />
<polygon fill="#000000" fill-opacity="0.501961" points="-16,-4 2,205 93,-16" />
<polygon fill="#f6feab" fill-opacity="0.501961" points="142,81 201,39 208,106" />
<polygon fill="#1e1d03" fill-opacity="0.501961" points="203,94 184,170 149,110" />
<polygon fill="#171015" fill-opacity="0.501961" points="271,52 245,-16 0,16" />
<polygon fill="#13080d" fill-opacity="0.501961" points="-16,122 126,137 21,205" />
<polygon fill="#987d70" fill-opacity="0.501961" points="170,205 42,72 141,75" />
<polygon fill="#443d38" fill-opacity="0.501961" points="134,107 64,31 186,19" />
<polygon fill="#f0eaeb" fill-opacity="0.501961" points="133,97 149,139 151,95" />
<polygon fill="#534d54" fill-opacity="0.501961" points="178,205 68,141 255,125" />
<polygon fill="#282c00" fill-opacity="0.501961" points="190,121 155,118 150,84" />
<polygon fill="#1e1416" fill-opacity="0.501961" points="-6,121 184,-16 -2,-11" />
<polygon fill="#ffffc5" fill-opacity="0.501961" points="166,70 195,41 173,45" />
<polygon fill="#1a120f" fill-opacity="0.501961" points="114,136 213,143 178,159" />
<polygon fill="#a48c74" fill-opacity="0.501961" points="133,71 131,135 63,129" />
<polygon fill="#a8805a" fill-opacity="0.501961" points="38,120 109,75 55,71" />
<polygon fill="#d9db94" fill-opacity="0.501961" points="144,83 211,48 186,107" />
<polygon fill="#797275" fill-opacity="0.501961" points="231,82 231,136 188,88" />
<polygon fill="#fbe4d6" fill-opacity="0.501961" points="208,125 200,115 209,87" />
<polygon fill="#2e272b" fill-opacity="0.501961" points="177,23 271,112 253,-16" />
<polygon fill="#251b1c" fill-opacity="0.501961" points="-15,186 139,203 3,101" />
<polygon fill="#6f6a68" fill-opacity="0.501961" points="202,205 160,146 89,140" />
<polygon fill="#605846" fill-opacity="0.501961" points="107,83 153,19 194,35" />
<polygon fill="#000000" fill-opacity="0.501961" points="115,143 139,137 88,134" />
<polygon fill="#55270f" fill-opacity="0.501961" points="107,92 108,71 129,89" />
<polygon fill="#fcf3f8" fill-opacity="0.501961" points="126,84 124,74 135,80" />
<polygon fill="#4a4445" fill-opacity="0.501961" points="202,89 237,71 213,30" />
<polygon fill="#70522f" fill-opacity="0.501961" points="80,114 107,128 65,80" />
<polygon fill="#cbb19b" fill-opacity="0.501961" points="123,124 111,94 83,93" />
<polygon fill="#3b411f" fill-opacity="0.501961" points="128,99 155,90 152,80" />
<polygon fill="#fff6c7" fill-opacity="0.501961" points="198,87 201,45 208,61" />
<polygon fill="#322c36" fill-opacity="0.501961" points="271,30 271,192 220,205" />
<polygon fill="#322929" fill-opacity="0.501961" points="25,69 98,71 170,-16" />
<polygon fill="#a4aa4e" fill-opacity="0.501961" points="163,76 213,94 165,90" />
<polygon fill="#edeebd" fill-opacity="0.501961" points="181,101 159,94 154,71" />
<polygon fill="#654e3b" fill-opacity="0.501961" points="113,108 115,92 131,130" />
<polygon fill="#ad907e" fill-opacity="0.501961" points="171,140 126,108 138,135" />
<polygon fill="#61422e" fill-opacity="0.501961" points="73,132 35,122 53,101" />
<polygon fill="#5c5f2b" fill-opacity="0.501961" points="201,100 158,101 198,127" />
<polygon fill="#ffffe2" fill-opacity="0.501961" points="176,45 189,41 203,48" />
<polygon fill="#edd5d2" fill-opacity="0.501961" points="155,80 145,87 145,77" />
<polygon fill="#5c5843" fill-opacity="0.501961" points="155,17 126,98 176,44" />
<polygon fill="#ffd9d3" fill-opacity="0.501961" points="72,108 62,103 72,102" />
<polygon fill="#5d4b1c" fill-opacity="0.501961" points="98,100 84,102 69,123" />
<polygon fill="#3e3733" fill-opacity="0.501961" points="223,74 226,83 192,91" />
<polygon fill="#635d5c" fill-opacity="0.501961" points="189,201 121,194 229,137" />
<polygon fill="#3d3433" fill-opacity="0.501961" points="156,27 209,16 265,70" />
<polygon fill="#af9f78" fill-opacity="0.501961" points="93,84 109,74 54,72" />
<polygon fill="#413738" fill-opacity="0.501961" points="52,156 98,138 128,205" />
<polygon fill="#5a5458" fill-opacity="0.501961" points="206,44 245,111 219,158" />
<polygon fill="#614d3d" fill-opacity="0.501961" points="199,144 158,136 150,108" />
<polygon fill="#28160e" fill-opacity="0.501961" points="134,131 117,141 157,143" />
<polygon fill="#514f1e" fill-opacity="0.501961" points="129,95 135,106 119,99" />
<polygon fill="#837677" fill-opacity="0.501961" points="222,98 195,140 217,146" />
<polygon fill="#70472b" fill-opacity="0.501961" points="73,93 75,77 92,83" />
<polygon fill="#b0a083" fill-opacity="0.501961" points="115,100 123,122 81,109" />
<polygon fill="#cb9e8c" fill-opacity="0.501961" points="69,94 75,87 51,85" />
<polygon fill="#170e0e" fill-opacity="0.501961" points="32,-16 2,157 -16,-13" />
<polygon fill="#b5a97c" fill-opacity="0.501961" points="204,63 172,59 189,46" />
<polygon fill="#ddd4c9" fill-opacity="0.501961" points="123,104 131,119 130,105" />
<polygon fill="#2a3a06" fill-opacity="0.501961" points="141,74 146,97 137,88" />
<polygon fill="#f8f9ce" fill-opacity="0.501961" points="191,70 196,87 205,84" />
<polygon fill="#21191a" fill-opacity="0.501961" points="170,-7 263,35 265,-3" />
<polygon fill="#060000" fill-opacity="0.501961" points="39,128 54,136 76,132" />
<polygon fill="#312521" fill-opacity="0.501961" points="21,96 41,63 57,96" />
<polygon fill="#ddd4cd" fill-opacity="0.501961" points="140,122 137,105 151,92" />
<polygon fill="#b5a592" fill-opacity="0.501961" points="107,86 123,97 131,93" />
<polygon fill="#615b4a" fill-opacity="0.501961" points="170,29 117,79 167,60" />
<polygon fill="#3f3c10" fill-opacity="0.501961" points="151,82 154,114 180,125" />
<polygon fill="#2a2120" fill-opacity="0.501961" points="20,99 55,4 150,-8" />
<polygon fill="#ffffc0" fill-opacity="0.501961" points="169,54 181,43 170,61" />
<polygon fill="#6e6666" fill-opacity="0.501961" points="154,163 153,145 94,139" />
<polygon fill="#392011" fill-opacity="0.501961" points="69,113 55,119 74,121" />
<polygon fill="#e3e4c0" fill-opacity="0.501961" points="196,93 170,95 191,99" />
<polygon fill="#362c2c" fill-opacity="0.501961" points="85,35 157,40 145,-16" />
<polygon fill="#fbcfb0" fill-opacity="0.501961" points="101,96 84,96 92,101" />
<polygon fill="#956d5d" fill-opacity="0.501961" points="132,120 141,126 133,96" />
<polygon fill="#4a4347" fill-opacity="0.501961" points="247,74 251,124 203,73" />
<polygon fill="#a8978d" fill-opacity="0.501961" points="155,134 150,109 136,138" />
<polygon fill="#d4c1c2" fill-opacity="0.501961" points="133,84 124,78 131,91" />
<polygon fill="#64672f" fill-opacity="0.501961" points="176,110 202,91 197,115" />
<polygon fill="#636140" fill-opacity="0.501961" points="156,26 161,70 172,40" />
<polygon fill="#a3867c" fill-opacity="0.501961" points="120,80 116,74 128,71" />
<polygon fill="#28140f" fill-opacity="0.501961" points="115,88 115,94 106,89" />
<polygon fill="#decdb4" fill-opacity="0.501961" points="205,88 201,110 211,115" />
<polygon fill="#e1e198" fill-opacity="0.501961" points="154,70 204,67 179,84" />
<polygon fill="#d2a7a2" fill-opacity="0.501961" points="57,108 64,115 67,108" />
<polygon fill="#a1918c" fill-opacity="0.501961" points="201,109 209,138 198,131" />
<polygon fill="#fffde9" fill-opacity="0.501961" points="193,43 204,57 204,51" />
<polygon fill="#542712" fill-opacity="0.501961" points="71,83 63,80 69,89" />
<polygon fill="#6e533e" fill-opacity="0.501961" points="42,112 45,127 67,94" />
<polygon fill="#6e4a30" fill-opacity="0.501961" points="142,133 122,131 136,137" />
<polygon fill="#140805" fill-opacity="0.501961" points="99,141 112,135 74,132" />
<polygon fill="#0a0100" fill-opacity="0.501961" points="155,145 139,139 167,141" />
<polygon fill="#dca386" fill-opacity="0.501961" points="74,112 79,111 74,96" />
<polygon fill="#8c725e" fill-opacity="0.501961" points="117,134 112,110 54,126" />
<polygon fill="#423c3b" fill-opacity="0.501961" points="210,147 158,153 168,164" />
<polygon fill="#554e4c" fill-opacity="0.501961" points="120,144 88,138 152,205" />
<polygon fill="#bcc261" fill-opacity="0.501961" points="162,89 177,90 173,68" />
<polygon fill="#4d4646" fill-opacity="0.501961" points="120,74 86,73 146,41" />
</g>
</svg>