<?xml version="1.0" encoding="UTF-8"?>
<!-- Created with Inkscape (http://www.inkscape.org/) -->
<svg width="695.97" height="211.75" version="1.1" viewBox="0 0 184.14 56.025" xmlns="http://www.w3.org/2000/svg">
 <g transform="translate(-.16877 -.016873)">
  <g transform="matrix(.87898 0 0 .87483 43.326 17.773)">
   <path d="m71.817 16.542c-0.10143 2.8256-0.52435 6.4757-1.8366 10.009-0.94436 2.543-2.2902 4.8654-4.1145 6.7665-1.5989 1.6662-3.5039 2.9434-5.6886 3.7735-2.073 0.78763-4.3601 1.1577-6.798 1.0991-2.4417-0.05871-4.6879-0.54575-6.6762-1.4137-2.0934-0.91384-3.8632-2.2319-5.3127-3.8738-0.05631-0.06379-0.11213-0.12804-0.16745-0.19276-1.3797-1.6142-2.6103-3.7016-3.4925-6.3882-0.86805-2.6434-1.3971-5.8644-1.3864-9.7437 0.01041-3.7891 0.53824-7.9419 1.5036-12.07 0.96618-4.1317 2.3504-8.1523 4.0253-11.675 1.7273-3.6331 3.7229-6.6543 5.8495-8.7896 1.1052-1.1097 2.2343-1.9692 3.373-2.5637 1.1855-0.61886 2.377-0.94871 3.5679-0.98266 1.2573-0.03584 2.4591 0.25831 3.5914 0.7953 1.2204 0.57881 2.3536 1.4367 3.3833 2.4586 0.59544 0.59087 1.1559 1.2361 1.6799 1.9145 0.46647 0.60392 0.91784 1.2512 1.353 1.9366 0.9499 1.4962 1.8124 3.158 2.581 4.9204 1.6733 3.8371 2.8261 7.9693 3.544 11.768 1.0373 5.4892 1.0895 9.7803 1.0209 12.252zm0.91756 0.0183c0.031105-2.5222-0.15575-6.8794-1.3226-12.393-0.80835-3.8198-2.045-7.9615-3.7674-11.818-0.79132-1.7718-1.6699-3.4474-2.6285-4.9656-0.43927-0.69567-0.89365-1.3556-1.3622-1.9748-0.52611-0.69528-1.0879-1.3639-1.6854-1.9833-1.0305-1.0684-2.1797-2.0039-3.4446-2.6699-1.1773-0.61986-2.4653-1.0126-3.8603-1.0484-1.3246-0.03406-2.6668 0.25518-4.0095 0.86107-1.2865 0.58052-2.5577 1.4446-3.7972 2.5648-2.3813 2.1521-4.6156 5.2233-6.5643 8.9057-1.8909 3.5731-3.4857 7.6726-4.6449 11.911-1.1566 4.229-1.8679 8.5541-2.0131 12.575-0.14892 4.1241 0.2964 7.6803 1.2002 10.703 0.92136 3.0818 2.3092 5.5757 3.9838 7.5368 0.06674 0.07816 0.13418 0.15576 0.20232 0.2328 1.7648 1.9953 3.9547 3.5605 6.5121 4.5859 2.4202 0.97041 5.0754 1.4192 7.8464 1.3605 2.7726-0.05874 5.373-0.6237 7.7065-1.6751 2.4606-1.1087 4.5272-2.7132 6.1905-4.6862 1.8898-2.2417 3.1777-4.8586 4.021-7.5841 1.1691-3.7785 1.4247-7.573 1.4371-10.438z" fill="#f0dee6"/>
   <path d="m69.903 15.845c-0.08615 2.4333-0.44837 5.576-1.5757 8.6186-0.81123 2.1896-1.9679 4.1893-3.5364 5.8267-1.3747 1.4351-3.0133 2.5361-4.8934 3.2525-1.7841 0.67974-3.7534 1.0003-5.8535 0.95144-2.1033-0.04893-4.0387-0.46696-5.7522-1.2136-1.8041-0.78606-3.3299-1.9208-4.5798-3.3353-0.04856-0.05495-0.09668-0.1103-0.14438-0.16606-1.1896-1.3906-2.2509-3.1893-3.012-5.5047-0.74884-2.2781-1.2055-5.0543-1.1968-8.398 0.0084-3.2658 0.46294-6.8452 1.2947-10.403 0.83241-3.5611 2.0253-7.0267 3.4689-10.063 1.4887-3.1315 3.209-5.7358 5.0425-7.5765 0.95292-0.95664 1.9265-1.6976 2.9086-2.21 1.0224-0.53348 2.0506-0.81765 3.0772-0.84655 1.0844-0.03052 2.1206 0.22363 3.0965 0.68706 1.0519 0.49952 2.0283 1.2396 2.9152 2.1208 0.5129 0.50956 0.99555 1.0659 1.4468 1.6509 0.40166 0.52073 0.79024 1.0788 1.1648 1.6698 0.81757 1.29 1.5596 2.7227 2.2204 4.242 1.4387 3.3078 2.428 6.8693 3.0425 10.143 0.88797 4.7305 0.92747 8.4264 0.86607 10.555zm0.85235 0.017c0.02445-2.1754-0.14205-5.9325-1.1536-10.685-0.70081-3.2922-1.7707-6.8611-3.2585-10.184-0.68353-1.5265-1.442-2.97-2.2692-4.2779-0.37905-0.59927-0.77106-1.1677-1.1752-1.7011-0.4538-0.5989-0.93832-1.1748-1.4535-1.7083-0.88853-0.9202-1.8791-1.7257-2.9691-2.299-1.0144-0.53355-2.1239-0.87134-3.3253-0.90188-1.1408-0.029-2.2967 0.22034-3.4531 0.74239-1.108 0.50019-2.2029 1.2447-3.2707 2.2098-2.0514 1.8542-3.9765 4.5004-5.6558 7.6734-1.6294 3.0788-3.0039 6.6113-4.0032 10.263-0.99705 3.6441-1.6105 7.3711-1.7361 10.836-0.12889 3.5538 0.25421 6.6182 1.0324 9.2234 0.79328 2.6558 1.9885 4.8053 3.4312 6.496 0.05749 0.06738 0.11559 0.13428 0.17428 0.20069 1.5203 1.7201 3.407 3.0701 5.6109 3.9553 2.0857 0.83773 4.3744 1.2262 6.7635 1.1773 2.3903-0.04895 4.6332-0.53424 6.6467-1.4394 2.1232-0.95447 3.9074-2.337 5.3441-4.0381 1.6323-1.9328 2.7455-4.1898 3.4749-6.5407 1.0111-3.259 1.2337-6.5321 1.2456-9.0028z" fill="#fbfbfb"/>
   <path d="m63.806 17.638c-0.04935 1.4417-0.26118 3.3027-0.92518 5.1047-0.47778 1.2966-1.1597 2.481-2.0854 3.4516-0.8113 0.85061-1.7794 1.5044-2.8915 1.9309-1.0554 0.40475-2.2217 0.59725-3.4668 0.57059-1.2469-0.0267-2.395-0.27242-3.412-0.71351-1.0708-0.46442-1.9772-1.1363-2.7198-1.975-0.02885-0.03258-0.05745-0.0654-0.08579-0.09847-0.70687-0.82461-1.3378-1.8917-1.7906-3.266-0.44548-1.3522-0.71744-3.0001-0.71306-4.9851 0.0043-1.9388 0.27345-4.0637 0.76673-6.1761 0.49368-2.1141 1.2015-4.1716 2.0585-5.9744 0.8837-1.8592 1.9053-3.4057 2.9946-4.4987 0.56616-0.56811 1.1448-1.0082 1.7286-1.3124 0.60788-0.31678 1.2192-0.48531 1.8296-0.50198 0.64469-0.017601 1.2604 0.13415 1.8398 0.41009 0.62448 0.29742 1.2037 0.73766 1.7295 1.2614 0.30404 0.3029 0.59002 0.63353 0.85728 0.98113 0.2379 0.30942 0.46793 0.64102 0.68953 0.99209 0.48373 0.76636 0.92222 1.6174 1.3122 2.5197 0.84907 1.9644 1.4303 4.0788 1.7892 6.0213 0.51863 2.8073 0.53443 4.9976 0.49469 6.2584zm0.5921 0.01181c0.011213-1.2934-0.095247-3.5263-0.70398-6.3469-0.42175-1.9542-1.0626-4.0717-1.9504-6.0424-0.40786-0.90538-0.85989-1.7613-1.3523-2.5367-0.22564-0.3553-0.45888-0.69229-0.69924-1.0085-0.26987-0.35503-0.55788-0.69634-0.86398-1.0125-0.52798-0.54533-1.1161-1.0224-1.7628-1.3616-0.60183-0.31575-1.2596-0.51531-1.9715-0.53292-0.67592-0.016723-1.3608 0.13137-2.046 0.44104-0.65659 0.29672-1.3056 0.73822-1.9387 1.3107-1.2164 1.0998-2.3583 2.6694-3.3547 4.5519-0.96686 1.8266-1.7827 3.9224-2.3761 6.0893-0.59208 2.1621-0.95668 4.3734-1.032 6.4292-0.07725 2.1085 0.14915 3.9269 0.60992 5.4729 0.46973 1.5761 1.178 2.8521 2.0333 3.8562 0.03409 0.04002 0.06853 0.07975 0.10334 0.1192 0.90138 1.0216 2.0203 1.8244 3.3282 2.3519 1.2378 0.49918 2.5967 0.73213 4.0159 0.70543 1.4199-0.02672 2.7535-0.31249 3.9519-0.84835 1.2637-0.56508 2.3271-1.3853 3.1843-2.396 0.97394-1.1483 1.6391-2.4902 2.0756-3.8883 0.60512-1.938 0.74036-3.8846 0.74922-5.3534z" fill="#f4f36a"/>
  </g>
  <g transform="matrix(.9793 0 0 .96466 -2.2357 35.976)" fill="#ebebeb" stroke-width=".021533" style="shape-inside:url(#rect3003);white-space:pre" aria-label="Trois">
   <path d="m22.765-14.889q0 0.20326-0.45733 0.66058l-0.45733 0.15244q-3.9635 0-9.299 0.81303-0.20326 1.8293-0.30488 3.8619-0.05082 2.0326-0.25407 4.0651-0.40651 4.929-1.5244 7.6221-0.40651 0.96547-1.2704 0.7114-0.86384-0.25407-0.66058-1.2704 1.0163-2.7948 1.2704-5.8944 0.25407-3.1505 0.3557-5.0306 0.10163-1.8801 0.30488-3.7094-1.5752 0.30488-3.2013 0.81303-1.5752 0.45733-3.1505 0.50814-0.30489 0.30488-0.66058 0.30488t-0.60977-0.20326q-0.66058-0.60977-0.20326-1.4736 0.3557-0.50814 1.4736-0.66058 4.4208-0.86384 8.74-1.6261 4.3192-0.81303 8.8417-0.86384h0.25407q0.66058 0.30488 0.7114 0.50814 0.05081 0.20326 0.05081 0.20326 0.05081 0 0.05081 0.05081v0.10163q0.10163 0.20326 0 0.3557z"/>
   <path d="m25.763-9.4514q-0.30489-0.86384 0.10163-1.2195 0.40651-0.40651 0.7114-0.40651 0.3557 0 0.76221 0.30488 1.0671 1.3212 1.0163 2.9472-0.05081 1.6261-0.15244 2.5915-0.05081 0.96547-0.10163 1.3212 0 0.30489-0.05081 0.55896l-0.15244 1.6769q2.0326-2.9472 5.1322-4.7257 3.0997-1.7785 6.9615-3.2521 0.91466-0.10163 1.1687 0.7114 0.25407 0.76221-0.60977 1.2195-5.3355 2.0326-7.5713 3.7094-2.185 1.6769-3.4554 3.5062-1.2704 1.7785-2.0326 4.2684-0.25407 0.60977-0.96547 0.81303h-0.10163q-0.91466-0.15244-1.0671-1.0671 0.05081-1.2704 0.30488-3.2521 0.25407-1.9818 0.45733-3.9127 0.50814-4.7765-0.3557-5.7928z"/>
   <path d="m39.737-4.2684q0.30488-0.81303 0.7114-1.8293 0.30489-1.0671 0.81303-1.9309 1.1687-2.2866 2.4391-3.2521l0.15244-0.30488q2.6932-2.3375 5.3355-1.7277 1.2195 0.30488 2.1342 1.1687 0.91466 0.81303 1.3212 1.9818 1.0163 2.744-0.7114 5.8436-1.1179 2.0834-3.7603 3.3537-1.9309 0.96547-4.929 1.3212-1.6769 0.25407-2.8964-1.372-1.2195-1.6261-0.60977-3.2521zm8.5368 0.86384q1.1687-0.81303 1.9309-1.8801 0.76221-1.1179 0.76221-2.8456 0-1.7277-0.91466-2.5915-0.91466-0.86384-2.2358-0.66058-0.20326 0.60977-0.86384 0.76221-1.9309 0.25407-3.5062 2.6932-1.372 2.1342-1.7277 4.116-0.10163 0.40651 0.05082 0.81303 0.20326 0.3557 0.30488 0.76221 0.30488 0.10163 0.60977 0.30489 0.30488 0.15244 1.0163 0.20326 0.76221 0.050814 2.0834-0.40651 1.372-0.45733 2.4899-1.2704z"/>
   <path d="m57.572-10.417q0.45733-0.86384 1.2195-0.60977 0.81303 0.25407 0.7114 1.1687-0.76221 2.744-1.3212 5.4879-0.50814 2.6932-1.2704 5.4371-0.40651 0.96547-1.2704 0.7114-0.86384-0.25407-0.60977-1.3212 0.25407-1.0163 0.50814-2.0326 0.30488-1.0671 0.55896-2.0834v-0.050814q0.40651-1.6769 0.66058-3.3537 0.30488-1.7277 0.81303-3.3537zm2.6423-7.2664q0.86384 0.30488 0.86384 1.0671t-0.91466 0.96547h-0.20326q-0.55896-0.05081-0.81303-0.3557-0.20326-0.30489-0.20326-0.7114 0.05082-0.86384 1.0671-0.96547z"/>
   <path d="m71.546-9.4006q0.7114 0.60977 0.50814 1.1179-0.40651 0.96547-1.2704 0.76221-1.0163-0.40651-2.2358 0-2.0326 0.66058-3.4046 1.4736 0.96547 0.60977 2.0326 0.96547 1.1179 0.3557 2.0326 0.91466 2.1342 1.1179 2.6423 3.0489-0.10163 0.60977-0.3557 0.91466-2.185 1.5244-5.5896 2.2358-3.3029 0.7114-6.0469 0.15244-0.86384-0.40651-0.66058-1.1687 0.20326-0.7114 1.0671-0.81303 3.2521 0.55896 7.4189-0.7114 1.2195-0.3557 1.9309-0.86384-0.86384-0.60977-1.9309-1.0163-1.0671-0.40651-2.0834-0.86384-0.96547-0.50814-1.7277-1.1687-0.7114-0.66058-0.91466-1.8293-0.05081-0.7114 0.45733-1.1179 5.0814-3.1505 8.1303-2.0326z"/>
  </g>
  <g transform="matrix(1.2362 0 0 1.2177 109.18 38.248)" fill="#ebebeb" stroke-width=".021533" style="shape-inside:url(#rect3003-1);white-space:pre" aria-label="Oeufs">
   <path d="m5.0721-11.956q-0.36229-0.72459 0.56357-1.1674 0.84535-0.32204 1.2479-0.48306 0.4428-0.20127 0.8051-0.28178 0.36229-0.12076 0.8051-0.12076h1.2882q1.9322 0 3.2606 2.0932 1.2479 1.9725 1.0869 3.7437-0.12076 1.7712-0.72459 3.4619-0.60382 1.6504-1.6504 2.9386-2.4153 2.8581-6.1187 2.4555-1.4894-0.16102-2.4153-0.92586-0.88561-0.76484-1.2479-1.8517-0.36229-1.1271-0.28178-2.4958 0.08051-1.3687 0.52331-2.7373 0.96612-2.8983 2.8581-4.6293zm4.3878-0.4428q0.20127 0.4428-0.040255 0.8051-0.24153 0.36229-0.68433 0.28178-0.40255-0.08051-0.64408-0.16102t-0.52331-0.16102q-1.892 0.84535-3.2606 3.5827-1.3687 2.6971-0.96612 4.7903 0.20127 1.0466 0.96612 1.731 0.8051 0.68433 2.3348 0.68433l0.040255-0.040255q0.4428-0.12076 0.88561-0.16102 0.4428-0.08051 1.2882-0.48306 0.84535-0.40255 1.8517-1.5297 1.0466-1.1271 1.5297-2.4958 1.1271-3.0996-0.60382-5.5149-0.76484-1.1674-2.053-1.3284zm-2.4958 11.513q-0.08051 0-0.16102 0.040255 0.08051-0.040255 0.16102-0.040255z"/>
   <path d="m24.797-9.3794q0.4428 0.32204 0.36229 1.1674-0.04026 0.8051-0.72459 1.5297-0.64408 0.72459-1.5699 1.1674-1.2882 0.60382-3.9047 0.96612-2.1738 2.4555-1.0869 3.3814 1.0064 0.92586 4.4683 0.4428 2.4958-0.32204 4.589-1.0064 0.72459-0.08051 0.92586 0.56357 0.20127 0.60382-0.48306 0.96612-4.8306 1.3687-8.0912 1.0869-2.053-0.20127-2.7373-1.1674-0.64408-0.96612-0.36229-2.2945 0.28178-1.3284 1.2882-2.7373 1.0064-1.4089 2.2945-2.4958 1.2882-1.0869 2.6568-1.5699 1.3687-0.52331 2.375 0zm-1.4492 1.4089q-0.72459 0.16102-2.375 1.4894 1.6102-0.48306 2.375-1.4894z"/>
   <path d="m29.99-7.2861q0.36229-0.72459 1.0869-0.40255 0.24153 0.12076 0.36229 0.4428 0.16102 0.28178-0.08051 0.76484-0.24153 0.4428-0.72459 1.3284-0.4428 0.88561-0.84535 1.8517-0.92586 2.375-0.4428 3.4619 1.8517 0.56357 3.5827-2.6166 1.3284-2.4153 1.8517-3.0996 0.56357-0.72459 1.1674-0.96612 0.48306-0.08051 0.88561 0.40255 0.20127 0.48306-0.20127 1.8115-0.36229 1.2882-0.56357 2.053-0.20127 0.76484-0.28178 1.3284-0.04026 0.56357 0.16102 0.84535 0.24153 0.24153 0.84535 0.040255 0.60382-0.24153 1.1674-0.52331 0.60382-0.24153 1.1674-0.48306 1.6102-0.72459 2.1335-1.0064 0.56357-0.32204 0.8051-0.24153 0.24153 0.040255 0.4428 0.28178 0.32204 0.52331-0.12076 1.1271-2.5361 1.4492-3.784 1.9725-2.9789 1.2479-3.8242 0-0.68433-0.96612-0.48306-2.6971-2.2543 3.3814-4.267 3.5424-1.7712 0.16102-2.3348-1.5297-0.28178-0.8051-0.080509-1.6102 0.20127-0.84535 0.28178-1.1271 0.08051-0.32204 0.12076-0.56357 0.08051-0.24153 0.20127-0.56357 0.92586-2.3348 1.7712-3.8242z"/>
   <path d="m43.113-3.7437q-0.72459-0.12076-0.8051-0.68433-0.08051-0.60382 0.60382-0.88561 0.52331-0.08051 1.3284-0.88561l0.92586-0.92586q1.3284-1.3284 2.2543-2.6568 1.8115-4.7501 3.8242-8.051 0.4428-0.32204 0.88561-0.16102 0.48306 0.12076 0.52331 0.68433h0.12076l-0.12076 0.24153q-0.56357 3.8645-3.8645 8.2925-0.36229 0.92586-0.68433 1.8517-0.28178 0.88561-0.60382 1.8115 1.2479-0.32204 2.5361-0.48306 1.2882-0.16102 2.6166-0.40255 0.40255-0.040255 0.64408 0.16102 0.24153 0.20127 0.28178 0.48306 0.04026 0.28178-0.16102 0.56357-0.16102 0.28178-1.1271 0.48306-0.92586 0.20127-2.4555 0.36229-1.5297 0.16102-2.9386 0.68433-0.64408 2.1335-1.2479 4.2268-0.60382 2.0932-1.0869 3.5827-0.4428 1.5297-0.76484 2.6971-0.28178 1.2076-0.68433 2.4555-0.92586 2.9789-1.9322 4.5085-0.28178 0.40255-0.64408 0.40255-0.40255 0-0.72459-0.32204 0-0.08051-0.04026-0.08051-0.24153-0.72459 0.20127-1.0869 1.1271-1.9322 1.6907-4.1865 0.56357-2.214 1.1674-4.1462 0.60382-1.892 1.0869-3.6632 0.48306-1.731 1.0064-3.5424-0.56357 0.08051-0.84535-0.4428-0.24153-0.56357 0.36229-1.0064 0.56357-0.32204 1.1271-0.56357 0.08051-0.32204 0.20127-0.60382 0.12076-0.28178 0.20127-0.60382-0.60382 0.56357-1.3284 1.2076-0.72459 0.60382-1.5297 0.68433z"/>
   <path d="m60.342-7.4471q0.56357 0.48306 0.40255 0.88561-0.32204 0.76484-1.0064 0.60382-0.8051-0.32204-1.7712 0-1.6102 0.52331-2.6971 1.1674 0.76484 0.48306 1.6102 0.76484 0.8856 0.28178 1.6102 0.72459 1.6907 0.88561 2.0932 2.4153-0.08051 0.48306-0.28178 0.72459-1.731 1.2076-4.428 1.7712-2.6166 0.56357-4.7903 0.12076-0.68433-0.32204-0.52331-0.92586 0.16102-0.56357 0.84535-0.64408 2.5763 0.4428 5.8772-0.56357 0.96612-0.28178 1.5297-0.68433-0.68433-0.48306-1.5297-0.8051-0.84535-0.32204-1.6504-0.68433-0.76484-0.40255-1.3687-0.92586-0.56357-0.52331-0.72459-1.4492-0.04025-0.56357 0.36229-0.88561 4.0255-2.4958 6.4408-1.6102z"/>
  </g>
 </g>
</svg>
